<svg xmlns="http://www.w3.org/2000/svg" xmlns:xlink="http://www.w3.org/1999/xlink" width="29.117" height="35.651" viewBox="0 0 29.117 35.651">
  <defs>
    <linearGradient id="linear-gradient" x1="1" y1="1" x2="0" gradientUnits="objectBoundingBox">
      <stop offset="0" stop-color="#789af9"/>
      <stop offset="1" stop-color="#3b9ca9"/>
    </linearGradient>
  </defs>
  <g id="bookking" transform="translate(-84.442 -502.173)">
    <path id="Path_1829" data-name="Path 1829" d="M855.92,1223.971H838.575v.763H855.92Zm0-1.137H838.432l-.028,0-.028,0h0l-.028,0h0l-.028,0-.028,0-.028,0-.028,0h0l-.027,0-.027,0h0l-.027.005-.027.006-.027.006-.027.006-.027.007-.027.007-.027.007-.026.008h0l-.026.008-.026.008-.026.009-.026.009-.026.01h0l-.026.009-.026.01-.025.01-.025.01-.025.011-.025.011h0l-.025.011-.024.012-.025.012h0l-.024.013-.025.012h0l-.024.013h0l-.024.013-.024.013-.024.014-.023.014-.023.015-.023.014-.023.015-.023.015-.022.016h0l-.022.015-.022.016h0l-.022.016-.022.016-.022.017-.021.017-.021.017-.021.017-.021.018-.02.018-.02.018-.02.018-.02.019h0l-.019.019-.019.019h0l-.019.019-.019.02h0l-.018.019h0l-.018.02-.018.02h0l-.018.021-.018.021-.017.021-.017.021-.017.021-.017.021-.017.021-.016.022-.016.022-.016.022-.016.023-.016.022-.015.023-.015.023-.015.023-.014.024-.014.023-.027.048-.026.048h0l-.013.024-.012.025-.012.024-.012.026-.011.025-.011.025-.011.026-.021.051-.01.026h0l-.01.026-.009.026-.009.027h0l-.008.026-.009.027-.008.027h0l-.008.026h0l-.007.027-.008.027-.007.028-.007.028-.012.055-.006.028-.005.027,0,.028,0,.028,0,.028,0,.029,0,.028,0,.029,0,.028,0,.029,0,.029,0,.029v.117a2.29,2.29,0,0,0,.662,1.61,2.229,2.229,0,0,0,1.588.671h2.551v-1.137h-2.551v-.763H855.92v.763H843.448v1.137h14.823v2.385H843.448v2.062l-1.161-1.178-1.161,1.178v-2.062h-2.551a4.557,4.557,0,0,1-3.25-1.37,4.686,4.686,0,0,1-1.351-3.3h0V1204.18a2.444,2.444,0,1,1,2.41-2.444,2.46,2.46,0,0,1-.322,1.222l.264.155,5.742,3.362.72-1.264,1.778-3.123a3.115,3.115,0,1,1,3.115,0l2.5,4.387,5.742-3.362.264-.155a2.459,2.459,0,0,1-.323-1.222,2.41,2.41,0,1,1,2.41,2.444v13.886H847.223v-2.385h8.7v-9.815l-4.566,2.674,1.11,1.95h-2.715l-.431-.758-.857-1.506-.318-.56-2.019-3.546-1.3,2.282-.72,1.264-1.176,2.065-.432.758h-2.715l1.11-1.95-4.567-2.674v15.182l.011-.006.021-.012.028-.016,0,0,.095-.051h0l.049-.025.014-.007.032-.016,0,0,.043-.021.008,0,.011-.005.032-.016.007,0,.026-.012.025-.011.007,0,.033-.014.011-.005.052-.022,0,0,.048-.019.019-.008.033-.013h0l.034-.013.018-.007.017-.006.034-.012h0l.053-.018.012,0,.034-.011.007,0,.028-.009.026-.009.008,0,.035-.011.01,0,.055-.016.005,0,.036-.01.014,0h0l.053-.015h0l.035-.009.018-.005h0l.052-.012h0l.106-.024h.006l.03-.006.026-.005.01,0,.036-.006.009,0,.027,0,.03-.005h.007l.036-.006.014,0,.023,0,.034-.005h0l.037-.005.018,0,.019,0,.037,0h0l.055-.006h0l.016,0,.037,0h.005l.032,0,.026,0h.012l.037,0h.038l.03,0h.009l.049,0h19.873v2.385Z" transform="translate(-747.123 -694.02)" fill-rule="evenodd" fill="url(#linear-gradient)"/>
  </g>
</svg>
