<svg xmlns="http://www.w3.org/2000/svg" xmlns:xlink="http://www.w3.org/1999/xlink" width="36.889" height="36.653"
  viewBox="0 0 36.889 36.653">
  <defs>
    <linearGradient id="linear-gradient" x1="1" y1="1" x2="0" gradientUnits="objectBoundingBox">
      <stop offset="0" stop-color="#00e2d3" />
      <stop offset="1" stop-color="#00b3d5" />
    </linearGradient>
  </defs>
  <g id="cryptoking" transform="translate(-117.206 -103.82)">
    <path id="Path_1824" data-name="Path 1824"
      d="M156.294,119.333a5.039,5.039,0,0,0-3.851,1.786c-.008-.008-.013-.017-.021-.026a5.049,5.049,0,0,1-7.432-.2l-.03.034c-.091-.1-.188-.185-.286-.274-.03-.027-.057-.056-.087-.083-.013-.011-.024-.024-.037-.035l.026-.02a5.049,5.049,0,0,1,.2-7.432l-.034-.03a5.054,5.054,0,1,0-6.945-.026l-.006.006c.052.041.1.084.152.126s.1.088.147.13a5.033,5.033,0,0,1,.6,6.765,5.067,5.067,0,0,0-1.409,1.255l-.036.048a5,5,0,0,0-.31.465l-.038.062a5.006,5.006,0,0,0-.469,1.114c-.015.051-.027.1-.04.156q-.055.219-.091.446c-.009.058-.019.114-.026.172a5.116,5.116,0,0,0-.041.615,5.05,5.05,0,0,0,5.58,5.026c.04,0,.078-.013.119-.017.133-.017.265-.035.395-.063.035-.008.069-.019.1-.027.133-.031.265-.063.393-.1l.073-.027c.138-.046.273-.1.405-.154l.04-.019c.142-.063.28-.132.415-.208l.014-.009a5.055,5.055,0,0,0,1.17-.912h0l.006.007c.041-.052.084-.1.126-.152h0c.043-.048.088-.1.129-.145h0a5.033,5.033,0,0,1,6.766-.6,5.051,5.051,0,1,0,4.332-7.647Z"
      transform="translate(-7.753)" fill="url(#linear-gradient)" />
    <g id="Group_564" data-name="Group 564" transform="translate(117.706 109.177)">
      <path id="Path_1825" data-name="Path 1825"
        d="M155.019,129.1a3.938,3.938,0,0,0,1.411-.454,9.777,9.777,0,0,0-6.039-6.255,4,4,0,0,0-.517,1.4A8.282,8.282,0,0,1,155.019,129.1Z"
        transform="translate(-131.17 -116.74)" fill="url(#linear-gradient)" />
      <path id="Path_1826" data-name="Path 1826"
        d="M138.175,139.85a8.244,8.244,0,0,1-2.844-15.984,4,4,0,0,0-.549-1.386A9.731,9.731,0,1,0,147.3,134.972a3.913,3.913,0,0,0-1.459-.351A8.258,8.258,0,0,1,138.175,139.85Z"
        transform="translate(-122.201 -116.778)" fill="url(#linear-gradient)" />
      <path id="Path_1827" data-name="Path 1827"
        d="M155.17,114.22a14.575,14.575,0,0,1,7.582,7.733,6.089,6.089,0,0,1,1.471-.181l.051,0a16.056,16.056,0,0,0-8.961-9.1c0,.066.01.13.01.2A6.147,6.147,0,0,1,155.17,114.22Z"
        transform="translate(-133.388 -112.674)" fill="url(#linear-gradient)" />
      <path id="Path_1828" data-name="Path 1828"
        d="M133.681,142.078a14.49,14.49,0,0,1-6.085-27.642,6.154,6.154,0,0,1-.179-1.475c0-.024,0-.047,0-.071a15.973,15.973,0,1,0,20.851,21.187,6.1,6.1,0,0,1-1.51-.255A14.511,14.511,0,0,1,133.681,142.078Z"
        transform="translate(-117.706 -112.764)" fill="url(#linear-gradient)" />
    </g>
  </g>
</svg>