<svg xmlns="http://www.w3.org/2000/svg" xmlns:xlink="http://www.w3.org/1999/xlink" width="32.812" height="35.65" viewBox="0 0 32.812 35.65">
  <defs>
    <linearGradient id="linear-gradient" x1="1" y1="1" x2="0" gradientUnits="objectBoundingBox">
      <stop offset="0" stop-color="#838aea"/>
      <stop offset="1" stop-color="#796fc1"/>
    </linearGradient>
  </defs>
  <g id="estudy" transform="translate(-80 -502.174)">
    <path id="Path_1832" data-name="Path 1832" d="M832.279,1837.421a14.137,14.137,0,0,0-5.747,7.667c-1.768,5.9.442,12.434,6.336,14.989,8.007,3.44,19.353-2.8,17.782-12.63-.2-1.278-.737-1.081-.737-.59,0,8.06-10.856,14.1-17.389,8.5,9.038-5.111,13.41-8.06,14.392-8.7,6.779-4.62-2.849-16.906-14.638-9.239Zm-1.67,15.088c-3.88-11.107,12.722-17.594,13.459-10.271a3.665,3.665,0,0,1-1.572,3.292l-11.887,6.979Z" transform="translate(-737.984 -1323.207)" fill-rule="evenodd" fill="url(#linear-gradient)"/>
    <path id="Path_1833" data-name="Path 1833" d="M625.675,1583.681l14.736-1.474-4.224,4.964,1.13,2.211.639,1.229c-4.372.049-10.9,3.145-13.263,7.667-.2-.393-.737-1.327-.982-1.769l-1.13-2.162-2.112.2h0a17.9,17.9,0,0,1,.295,3.1.875.875,0,0,1,.246,1.327l.982,2.654-2.456.393.246-2.85a.929.929,0,0,1,.1-1.622,13.012,13.012,0,0,0-.2-2.9h-.049l-3.537.344Z" transform="translate(-536.096 -1080.033)" fill-rule="evenodd" fill="url(#linear-gradient)"/>
  </g>
</svg>
