<svg xmlns="http://www.w3.org/2000/svg" xmlns:xlink="http://www.w3.org/1999/xlink" width="26.73" height="36.652"
  viewBox="0 0 26.73 36.652">
  <defs>
    <linearGradient id="linear-gradient" x1="1" y1="1" x2="0" gradientUnits="objectBoundingBox">
      <stop offset="0" stop-color="#ffcca6" />
      <stop offset="1" stop-color="#ff9b9c" />
    </linearGradient>
  </defs>
  <g id="foodmaster" transform="translate(-258.133 -170.875)">
    <path id="Path_1836" data-name="Path 1836"
      d="M288.462,189.152a3.312,3.312,0,0,1-2.829,3.337l-.023,0a1.269,1.269,0,0,0-1.164,1.259v4.759c-.816.019-1.428.032-1.8.036a6.681,6.681,0,0,1-.977-.875c-.962-.97-2.282-2.3-4.153-2.3h-6.29a1.356,1.356,0,0,0,.023-.247V193.79a1.262,1.262,0,0,0-1.263-1.261,3.376,3.376,0,0,1,0-6.752,3.46,3.46,0,0,1,.637.059,1.218,1.218,0,0,0,.232.023,1.276,1.276,0,0,0,.793-.281,1.254,1.254,0,0,0,.468-.949,5.422,5.422,0,0,1,10.84,0,1.265,1.265,0,0,0,1.263,1.23,1.3,1.3,0,0,0,.236-.023,3.379,3.379,0,0,1,4.008,3.316Z"
      transform="translate(-6.294 -6.293)" fill="url(#linear-gradient)" />
    <g id="Group_573" data-name="Group 573" transform="translate(258.633 171.375)">
      <g id="Group_572" data-name="Group 572" transform="translate(0)">
        <g id="Group_571" data-name="Group 571">
          <path id="Path_1837" data-name="Path 1837"
            d="M277.732,207.027c-.111,0-.223,0-.337,0h-.1c-.6,0-1.992,0-5.134-2.055a2.556,2.556,0,0,0-1.485-.536c-.83,0-2.515-.018-4.3-.036-1.983-.021-4.033-.042-5.152-.042a.419.419,0,0,1,0-.839c1.124,0,3.176.022,5.161.042,1.781.019,3.464.036,4.29.036a3.391,3.391,0,0,1,1.943.672c2.934,1.915,4.156,1.918,4.678,1.919h.125a6.6,6.6,0,0,0,4.907-1.53,3.768,3.768,0,0,0,1.2-2.57c0-1.9-2.463-3.715-4.5-3.951-.29-.034-2.886-.3-4.456.7-.463.293-.848.557-1.188.79a4.58,4.58,0,0,1-2.677,1.149c-3.165,0-7.77.112-9,.151a1.665,1.665,0,0,1-1.259-.419,1.637,1.637,0,0,1-.456-1.2,1.385,1.385,0,0,1,.406-1.023,1.883,1.883,0,0,1,1.275-.457c.055,0,6.539.032,7.594-.066a.442.442,0,0,0,.388-.488.576.576,0,0,0-.655-.544h-7.033a2.481,2.481,0,0,1-1.476-.406,1.316,1.316,0,0,1-.562-1.058c0-.745.684-1.537,1.952-1.537,1.39,0,2.647-.008,3.857-.016,1.125-.007,2.209-.014,3.322-.014.436,0,.665-.264.665-.525a.381.381,0,0,0-.129-.29.836.836,0,0,0-.561-.164c-1.234,0-2.57.045-3.862.089-1.22.041-2.372.081-3.378.081-1.283,0-1.955-.761-1.955-1.512,0-.721.637-1.451,1.855-1.451h9.535c1.52,0,2.649,1.136,3.556,2.048.575.579,1.119,1.125,1.512,1.125h0c.48,0,1.411-.024,2.7-.058v-5.582a.419.419,0,0,1,.387-.418l.049,0a4.146,4.146,0,0,0,3.58-4.175A4.218,4.218,0,0,0,278,178.715a.419.419,0,0,1-.5-.4,6.266,6.266,0,0,0-12.527,0,.419.419,0,0,1-.5.4,4.269,4.269,0,0,0-.79-.075,4.219,4.219,0,1,0,0,8.439.42.42,0,0,1,.42.419v1.334a.419.419,0,1,1-.839,0V187.9a5.058,5.058,0,0,1,.419-10.1c.158,0,.317.008.476.023a7.1,7.1,0,0,1,14.149,0c.159-.015.318-.023.476-.023a5.064,5.064,0,0,1,5.058,5.058,4.98,4.98,0,0,1-4.016,4.958v5.629a.419.419,0,0,1-.408.419c-1.533.041-2.586.065-3.127.07h-.012c-.742,0-1.374-.636-2.106-1.373-.839-.844-1.791-1.8-2.961-1.8h-9.535c-.7,0-1.017.317-1.017.612,0,.335.383.673,1.116.673.992,0,2.137-.039,3.349-.08,1.3-.044,2.643-.09,3.891-.09a1.623,1.623,0,0,1,1.12.378,1.214,1.214,0,0,1,.409.915,1.4,1.4,0,0,1-1.5,1.364c-1.111,0-2.194.007-3.317.014-1.212.008-2.47.016-3.862.016-.7,0-1.113.355-1.113.7a.476.476,0,0,0,.22.382,1.623,1.623,0,0,0,.979.243h7.033a1.4,1.4,0,0,1,1.493,1.344,1.259,1.259,0,0,1-1.148,1.362c-1.1.1-7.419.071-7.687.07a1.056,1.056,0,0,0-.678.222.556.556,0,0,0-.149.419.847.847,0,0,0,.2.594.869.869,0,0,0,.649.182c1.235-.039,5.853-.151,9.027-.151a3.843,3.843,0,0,0,2.2-1c.346-.236.737-.5,1.212-.806,1.777-1.127,4.479-.881,5-.82,2.139.248,5.245,2.235,5.245,4.784a4.631,4.631,0,0,1-1.454,3.171A7.11,7.11,0,0,1,277.732,207.027Z"
            transform="translate(-258.633 -171.375)" fill="url(#linear-gradient)" />
        </g>
      </g>
    </g>
  </g>
</svg>