<svg xmlns="http://www.w3.org/2000/svg" xmlns:xlink="http://www.w3.org/1999/xlink" width="28.681" height="35.65" viewBox="0 0 28.681 35.65">
  <defs>
    <linearGradient id="linear-gradient" x2="1" y2="1" gradientUnits="objectBoundingBox">
      <stop offset="0" stop-color="#00b65f"/>
      <stop offset="1" stop-color="#005b30"/>
    </linearGradient>
  </defs>
  <g id="grobag" transform="translate(2.403 0.247)">
    <path id="Path_16" data-name="Path 16" d="M4827.91,1088.168a9.906,9.906,0,0,0-2.5,5.385h.757a3.114,3.114,0,0,0,3.1-3.1v-3.1h-3.1a3.113,3.113,0,0,0-3.1,3.053c0,.147,0,.293,0,.44v8.728h-10.618a4.51,4.51,0,0,1-.686-.053,4.8,4.8,0,0,1-2.615-1.307,4.122,4.122,0,0,1-.9-1.3,2.985,2.985,0,0,1-.228-1.316,17.734,17.734,0,0,1,.228-2.269l2.829-18.451a5.538,5.538,0,0,1,1.485-3.078,4.131,4.131,0,0,1,2.006-1.128v2.095a2.249,2.249,0,0,0-.6.435,3.536,3.536,0,0,0-.927,1.97l-3.079,20.087a1.576,1.576,0,0,0-.019.245,1.846,1.846,0,0,0,.592,1.3,2.8,2.8,0,0,0,1.522.758,2.7,2.7,0,0,0,.392.029h9.148v-6.745c0-.147,0-.293,0-.435a3.115,3.115,0,0,0-3.1-3.057h-3.1v3.1a3.114,3.114,0,0,0,3.1,3.1h.758a9.9,9.9,0,0,0-2.5-5.385,9.36,9.36,0,0,1,3.929,6.7l.016.152h-2.2a4.586,4.586,0,0,1-4.572-4.573v-4.572h4.572a4.569,4.569,0,0,1,3.238,1.351v-4.944c0-.1,0-.2,0-.294a2.017,2.017,0,0,0-2.008-1.979h-2.008v2.008a2.016,2.016,0,0,0,2.008,2.008h.4a6.785,6.785,0,0,0-1.6-3.694,6.454,6.454,0,0,1,2.643,3.842,6.3,6.3,0,0,1,.142.837l.021.213h-1.6a3.216,3.216,0,0,1-3.207-3.207v-3.207h3.207a3.2,3.2,0,0,0,5.215,0h3.206v3.207a3.215,3.215,0,0,1-3.206,3.207h-1.6l.022-.213a6.383,6.383,0,0,1,.141-.837,6.457,6.457,0,0,1,2.643-3.842,6.786,6.786,0,0,0-1.6,3.694h.4a2.016,2.016,0,0,0,2.007-2.008v-2.008h-2.007a2.015,2.015,0,0,0-2.008,1.973c0,.1,0,.2,0,.3v4.944a4.568,4.568,0,0,1,3.238-1.351h4.573v4.572a4.586,4.586,0,0,1-4.573,4.573h-2.2l.015-.152a9.522,9.522,0,0,1,.206-1.213A9.335,9.335,0,0,1,4827.91,1088.168Z" transform="translate(-4810.42 -1064.167)" fill="url(#linear-gradient)"/>
    <path id="Path_17" data-name="Path 17" d="M5085.61,858.715a3.8,3.8,0,0,1-1.189,2.708,4.8,4.8,0,0,1-2.614,1.307,4.52,4.52,0,0,1-.687.053h-7.6V860.8h7.6a2.691,2.691,0,0,0,.392-.029,2.8,2.8,0,0,0,1.522-.758,1.844,1.844,0,0,0,.592-1.3,1.577,1.577,0,0,0-.019-.245l-3.08-20.087a3.542,3.542,0,0,0-.927-1.97,2.164,2.164,0,0,0-1.561-.654h-.034v1.578a1.479,1.479,0,1,1-1.984,0V835.76h-.006l-.015-2.2a4.783,4.783,0,0,0-9.546.219h8.569v1.983h-8.575v1.579a1.479,1.479,0,1,1-1.984,0v-3.562h0a6.96,6.96,0,0,1,5.087-6.44,7.014,7.014,0,0,1,3.356,0,6.958,6.958,0,0,1,5.088,6.44h.038a4.107,4.107,0,0,1,2.963,1.235,5.542,5.542,0,0,1,1.485,3.078l3.079,20.087A3.536,3.536,0,0,1,5085.61,858.715Z" transform="translate(-5059.333 -827.38)" fill="url(#linear-gradient)"/>
  </g>
</svg>
