<svg xmlns="http://www.w3.org/2000/svg" xmlns:xlink="http://www.w3.org/1999/xlink" width="201.193" height="42.23" viewBox="0 0 201.193 42.23">
  <defs>
    <linearGradient id="linear-gradient" x1="0.5" x2="0.5" y2="1" gradientUnits="objectBoundingBox">
      <stop offset="0" stop-color="#fb2a59"/>
      <stop offset="1" stop-color="#7e152d"/>
    </linearGradient>
  </defs>
  <g id="homelogo" transform="translate(-15 -71.912)">
    <g id="smartkit" transform="translate(15 71.912)">
      <path id="Path_10" data-name="Path 10" d="M19.295,70.191,1.327,83.023h0A1.327,1.327,0,0,1,0,81.7V75.674l7.7-5.491a.531.531,0,0,0,0-.865L0,63.826v-8.3L19.295,69.31a.531.531,0,0,1,0,.881Z" transform="translate(0 -40.792)" fill="url(#linear-gradient)"/>
      <path id="Path_11" data-name="Path 11" d="M19.295,70.191l-5.573,3.981a.754.754,0,0,0-.295-.815L0,63.826v-8.3L19.295,69.31a.531.531,0,0,1,0,.881Z" transform="translate(0 -40.792)" fill="#fb2a59"/>
      <path id="Path_12" data-name="Path 12" d="M45.645,24.362,63.612,11.53h0a1.327,1.327,0,0,1,1.327,1.327v6.022l-7.7,5.494a.531.531,0,0,0,0,.863l7.7,5.491v8.3L45.645,25.246a.531.531,0,0,1,0-.884Z" transform="translate(-33.357 -8.47)" fill="url(#linear-gradient)"/>
      <path id="Path_13" data-name="Path 13" d="M45.65,48.861l5.573-3.981a.754.754,0,0,0,.292.828l13.429,9.517v8.3L45.65,49.742a.531.531,0,0,1,0-.881Z" transform="translate(-33.362 -32.969)" fill="#fb2a59"/>
      <path id="Path_14" data-name="Path 14" d="M65.649,124.93v5.419a1.218,1.218,0,0,1-1.218,1.216H46.45l14.212-9.955Z" transform="translate(-34.122 -89.335)" fill="#fb2a59"/>
      <path id="Path_15" data-name="Path 15" d="M22.294,9.08,6.635,19.035,0,14.9V10.335A1.255,1.255,0,0,1,1.255,9.08Z" transform="translate(0 -6.67)" fill="#fb2a59"/>
      <path id="Path_16" data-name="Path 16" d="M56.7.8a.8.8,0,0,0-.8-.8h0L49.8.037a.8.8,0,0,0-.8.8V1.871a.265.265,0,0,0,.265.265h0a.265.265,0,0,0,.265-.265V.831A.265.265,0,0,1,49.8.565L55.9.531h0A.265.265,0,0,1,56.166.8V1.884a.265.265,0,0,0,.265.265h0a.265.265,0,0,0,.265-.265Z" transform="translate(-35.995)" fill="url(#linear-gradient)"/>
    </g>
    <g id="text" transform="translate(60.225 71.001)">
      <path id="Path_1841" data-name="Path 1841" d="M1.758-7.207a22.2,22.2,0,0,0,4,2.021,9.607,9.607,0,0,0,3.208.58A4.235,4.235,0,0,0,11.5-5.3a2.116,2.116,0,0,0,.958-1.784q0-1.564-3.41-3.516l-.844-.492-1.723-.967A10.811,10.811,0,0,1,2.76-15.275a7.079,7.079,0,0,1-1.213-4.061,6.319,6.319,0,0,1,2.32-5.045A8.944,8.944,0,0,1,9.861-26.35a15.032,15.032,0,0,1,2.936.316,27.275,27.275,0,0,1,3.516.984v5.977a20.264,20.264,0,0,0-3.5-1.793A8.129,8.129,0,0,0,10-21.5a3.3,3.3,0,0,0-2.021.554,1.779,1.779,0,0,0-.738,1.5,2.027,2.027,0,0,0,.439,1.248A4.012,4.012,0,0,0,9-17.139l2.988,1.652a15.936,15.936,0,0,1,5.036,3.832,6.841,6.841,0,0,1,1.292,4.166,7.727,7.727,0,0,1-2.54,6.021A9.675,9.675,0,0,1,9.035.826a17.643,17.643,0,0,1-3.094-.3A29.669,29.669,0,0,1,2.268-.4ZM39.7,0H34.2V-9.07a2.928,2.928,0,0,0-.519-1.863,1.769,1.769,0,0,0-1.468-.65,2.532,2.532,0,0,0-2.118.984A4.469,4.469,0,0,0,29.327-7.8V0h-5.5V-15.838h5.115v2.654a10.006,10.006,0,0,1,2.716-2.355,5.983,5.983,0,0,1,2.927-.738,5.267,5.267,0,0,1,2.874.721,5.6,5.6,0,0,1,1.925,2.3,8.231,8.231,0,0,1,2.54-2.268,6.138,6.138,0,0,1,3-.756,4.82,4.82,0,0,1,3.894,1.485,7.014,7.014,0,0,1,1.257,4.6V0h-5.5V-9.07a2.928,2.928,0,0,0-.519-1.863,1.769,1.769,0,0,0-1.468-.65,2.527,2.527,0,0,0-2.127.984A4.507,4.507,0,0,0,39.7-7.8ZM66.108-11.812a4.1,4.1,0,0,0-.94-.4,3.342,3.342,0,0,0-.888-.123,3.286,3.286,0,0,0-2.637,1.31,5.031,5.031,0,0,0-1.072,3.3,4.985,4.985,0,0,0,.94,3.1,2.8,2.8,0,0,0,2.294,1.239,2.456,2.456,0,0,0,1.116-.29,4.991,4.991,0,0,0,1.187-.888Zm5.52-4.025v9.9q0,1.863.07,3.129T71.909-.65L66.793.756,66.3-.756A8.224,8.224,0,0,1,64.271.387a5.93,5.93,0,0,1-2.083.369,6.5,6.5,0,0,1-5.142-2.443A9.048,9.048,0,0,1,54.963-7.77,8.891,8.891,0,0,1,57.3-14.1a7.746,7.746,0,0,1,5.906-2.5,6.97,6.97,0,0,1,1.723.229,13.225,13.225,0,0,1,1.986.7ZM83.183,0H77.646V-15.838H82.8l.105,2.777a6.393,6.393,0,0,1,2.224-2.426,6.13,6.13,0,0,1,3.173-.756h.439v5.906h-1.2a6.934,6.934,0,0,0-3.472.589q-.888.589-.888,2.839ZM94.352-5.326v-6.346h-2.3v-4.166h2.3v-4.746l5.625-.756v5.5h3.744v4.166H99.977v6.732a6.245,6.245,0,0,0,.58,3.1,5.21,5.21,0,0,0,2.18,1.767L96.479.352a3.229,3.229,0,0,1-1.652-1.679A11.5,11.5,0,0,1,94.352-5.326ZM108.756,0V-25.488h6.012V-14.4l8.42-11.092h7.242l-9.615,12.129L131.186,0h-7.348l-9.07-11.742V0Zm25.161-21.744a2.918,2.918,0,0,1,.879-2.145,2.918,2.918,0,0,1,2.145-.879,2.925,2.925,0,0,1,2.153.87,2.925,2.925,0,0,1,.87,2.153,2.976,2.976,0,0,1-.879,2.162,2.889,2.889,0,0,1-2.145.9,2.892,2.892,0,0,1-2.127-.905A2.955,2.955,0,0,1,133.917-21.744ZM139.753,0h-5.572V-15.838l5.572-.756ZM146.6-5.326v-6.346h-2.3v-4.166h2.3v-4.746l5.625-.756v5.5h3.744v4.166h-3.744v6.732a6.245,6.245,0,0,0,.58,3.1,5.21,5.21,0,0,0,2.18,1.767l-6.258.422a3.229,3.229,0,0,1-1.652-1.679A11.5,11.5,0,0,1,146.6-5.326Z" transform="translate(0 35)" fill="#020202"/>
    </g>
  </g>
</svg>
