<svg xmlns="http://www.w3.org/2000/svg" xmlns:xlink="http://www.w3.org/1999/xlink" width="23.368" height="34.933" viewBox="0 0 23.368 34.933">
  <defs>
    <linearGradient id="linear-gradient" x1="0.561" y1="0.613" x2="0.855" y2="0.002" gradientUnits="objectBoundingBox">
      <stop offset="0" stop-color="#f7882f"/>
      <stop offset="1" stop-color="#f7c331"/>
    </linearGradient>
  </defs>
  <g id="lightvpn" transform="translate(-4840.397 -874.321)">
    <path id="Path_1969" data-name="Path 1969" d="M4848.327,898.8l-4.514-4.514a11.653,11.653,0,0,1-2.6-3.941.981.981,0,0,1,.911-1.344h.087a.966.966,0,0,1,.911.616,9.61,9.61,0,0,0,2.134,3.225l4.514,4.515a.984.984,0,0,1,0,1.387l-.057.057a.983.983,0,0,1-1.388,0Zm-7.924-11.838c0-.026,0-.653,0-.679a.983.983,0,0,1,.98-1.025h.08a.981.981,0,0,1,.98.937c0,.024,0,.649,0,.673a.9.9,0,0,1-.9.947h-.243a.9.9,0,0,1-.9-.854Zm.454-4.236a11.7,11.7,0,0,1,22.448,0,.981.981,0,0,1-.94,1.257h-.084a.969.969,0,0,1-.94-.7,9.656,9.656,0,0,0-18.516,0,.969.969,0,0,1-.941.7h-.084a.981.981,0,0,1-.94-1.257Zm22.908,3.545c0,.026,0,.568,0,.595a.9.9,0,0,1-.9.854h-.243a.9.9,0,0,1-.9-.947c0-.024,0-.565,0-.589a.98.98,0,0,1,.98-.936h.08a.982.982,0,0,1,.98,1.025Zm-.815,4.073a11.673,11.673,0,0,1-2.6,3.941l-4.284,4.284a1.556,1.556,0,0,1-2.2,0l-2.775-2.775a.983.983,0,0,1,0-1.387l.057-.057a.984.984,0,0,1,1.388,0l2.139,2.139a.41.41,0,0,0,.579,0l3.649-3.649a9.619,9.619,0,0,0,2.133-3.225.965.965,0,0,1,.911-.616h.086a.982.982,0,0,1,.912,1.344Zm-14.024,3.279-.393-.393a.983.983,0,0,1,0-1.387l.057-.057a.984.984,0,0,1,1.387,0l.393.393a.985.985,0,0,1,0,1.388l-.057.057A.984.984,0,0,1,4848.925,893.624Zm-2.621-2.661c-.046-.056-.2-.232-.242-.287a7.612,7.612,0,0,1,.639-10.041,7.693,7.693,0,0,1,1.165-.956.982.982,0,0,1,1.525.817v.1a.954.954,0,0,1-.43.811,5.569,5.569,0,0,0-1.271,8.037c.025.032.161.188.188.221a.979.979,0,0,1-.065,1.315l-.058.057a.981.981,0,0,1-1.451-.071Zm5.571-12.555c.056,0,.11,0,.165,0a.979.979,0,0,1,.986.981v.08a.982.982,0,0,1-.975.981h-.122a.982.982,0,0,1-1.009-.98v-.08a.982.982,0,0,1,.955-.981Zm4.176,1.111a7.614,7.614,0,0,1,1.413,11.881l-1.4,1.4c-1.155,1.156-2.6-.539-1.317-1.644.309-.265.608-.535.89-.815l.381-.381a5.565,5.565,0,0,0,0-7.876,5.619,5.619,0,0,0-1-.8.958.958,0,0,1-.463-.833v-.094a.981.981,0,0,1,1.493-.837Z" transform="translate(0 0)" fill="url(#linear-gradient)"/>
    <path id="Path_1970" data-name="Path 1970" d="M5068.868,1807.3h-8.833a1.034,1.034,0,0,0-1.032,1.032h0a1.034,1.034,0,0,0,1.032,1.032h8.833a1.034,1.034,0,0,0,1.032-1.032h0A1.034,1.034,0,0,0,5068.868,1807.3Z" transform="translate(-212.37 -906.366)" fill="url(#linear-gradient)"/>
    <path id="Path_1971" data-name="Path 1971" d="M5068.868,1916.165h-8.833A1.034,1.034,0,0,0,5059,1917.2h0a1.034,1.034,0,0,0,1.032,1.032h8.833a1.034,1.034,0,0,0,1.032-1.032h0A1.034,1.034,0,0,0,5068.868,1916.165Z" transform="translate(-212.37 -1012.123)" fill="url(#linear-gradient)"/>
    <path id="Path_1972" data-name="Path 1972" d="M5164.52,2026.513h4.876a2.472,2.472,0,0,1-4.876,0Z" transform="translate(-314.876 -1119.323)" fill="url(#linear-gradient)"/>
  </g>
</svg>
