<svg xmlns="http://www.w3.org/2000/svg" xmlns:xlink="http://www.w3.org/1999/xlink" width="25.099" height="34.677" viewBox="0 0 25.099 34.677">
  <defs>
    <linearGradient id="linear-gradient" x1="0.989" y1="1" x2="0" gradientUnits="objectBoundingBox">
      <stop offset="0" stop-color="#d998fa"/>
      <stop offset="1" stop-color="#6a0fc4"/>
    </linearGradient>
  </defs>
  <path id="MotiQuotes" d="M1737.752,4642.4a1.92,1.92,0,0,1-2.666.919,11.1,11.1,0,0,1-3-2.751l-2.576-2.8-.022-.019a11.582,11.582,0,0,0-1.619-1.264l-.011-.007a5.415,5.415,0,0,0-2.566-.64,6.544,6.544,0,0,0-1.7.236,5.776,5.776,0,0,0-2.668,1.546,8.289,8.289,0,0,1-1.069-4.217,8.063,8.063,0,0,1,2.416-5.942,7.829,7.829,0,0,1,11.312,0,8.541,8.541,0,0,1,0,11.881c-.226.227-.463.444-.71.647a10.135,10.135,0,0,0,2.727,2.5l.3.188c.287-.243.563-.5.829-.765a11.895,11.895,0,0,0,0-17.023l-.192-.189,2.225-5.52-1.74,1.151,2.279-4.587-3.822,1.894a2.961,2.961,0,0,1-.771,2.463c-1.131,1.2-3.452,1.389-4.271-.245a2.113,2.113,0,0,1,2.2-3.037,2.1,2.1,0,0,0-2.262-.689l-2.486-3.148-2.187,3.364a2.1,2.1,0,0,0-2.188.894,2.113,2.113,0,0,1,2.472,2.822c-.666,1.7-2.994,1.729-4.23.636a2.96,2.96,0,0,1-.993-2.381l-3.98-1.535,2.691,4.359-1.838-.987,2.12,4.123q-.335.292-.659.615a11.858,11.858,0,0,0,0,17.033,12.023,12.023,0,0,0,8.8,3.589,13.594,13.594,0,0,0,2.836-.288c.374.37.756.735,1.151,1.08a5.622,5.622,0,0,0,.938.7,5.361,5.361,0,0,0,2.582.655,6.532,6.532,0,0,0,1.7-.236,5.876,5.876,0,0,0,3.478-2.579Zm-9.682-25.691a.861.861,0,1,1-.821.9A.861.861,0,0,1,1728.07,4616.714Zm-4.573,23.671a1.916,1.916,0,0,1,.727-.354,1.773,1.773,0,0,1,.458-.056,2.306,2.306,0,0,1,1.052.287,10.794,10.794,0,0,1,1.312,1.018l.428.477A7.459,7.459,0,0,1,1723.5,4640.385Z" transform="translate(-1715.5 -4612.99)" fill-rule="evenodd" fill="url(#linear-gradient)"/>
</svg>
