<svg xmlns="http://www.w3.org/2000/svg" xmlns:xlink="http://www.w3.org/1999/xlink" width="37.61" height="30.225"
  viewBox="0 0 37.61 30.225">
  <defs>
    <linearGradient id="linear-gradient" x1="1" y1="1" x2="0" gradientUnits="objectBoundingBox">
      <stop offset="0" stop-color="#fb5293" />
      <stop offset="1" stop-color="#c40f8e" />
    </linearGradient>
  </defs>
  <g id="MusicFlex" transform="translate(-145.055 -97.333)">
    <g id="Group_656" data-name="Group 656" transform="translate(145.56 97.959)">
      <path id="Path_1983" data-name="Path 1983"
        d="M183.033,112.8a16.811,16.811,0,0,0-2.277-6.952,14.76,14.76,0,0,0-.952-1.381,1.128,1.128,0,0,0-.193-1.2,17.3,17.3,0,0,0-5.281-3.95,3.536,3.536,0,0,0-4.445,1.153l-5.024,9.789-5.024-9.789a3.537,3.537,0,0,0-4.445-1.153,17.316,17.316,0,0,0-5.25,3.915,1.186,1.186,0,0,0-.223,1.23,14.787,14.787,0,0,0-.953,1.383,16.811,16.811,0,0,0-2.277,6.952,23.12,23.12,0,0,0,.289,6.761,2.445,2.445,0,0,0-.249,1.5l.115.749a2.472,2.472,0,0,0,2.81,2.061l.171-.026h0a2.472,2.472,0,0,0,2.946,1.956l.043-.009a4.629,4.629,0,0,0,.231,1.276s.8,1.37,2.038.822a1.406,1.406,0,0,0,.814-1.764s-.514-2.441-.771-4.265-.963-7.091-1.015-8.311a1.413,1.413,0,0,0-1.212-1.366,1.51,1.51,0,0,0-1.781,1.644c0,1.918,1.1,8.837,1.1,8.837a51.887,51.887,0,0,1-1.439-8.7l-1.96.194a.749.749,0,0,0-.662.885l.61,3.213a2.443,2.443,0,0,0-.906.343,22.042,22.042,0,0,1-.148-5.686,15.2,15.2,0,0,1,2.987-7.79,1.129,1.129,0,0,0,1.1-.347,15.054,15.054,0,0,1,4.6-3.43,1.263,1.263,0,0,1,1.586.418L163.8,113.1a1.12,1.12,0,0,0,.123.239l.008.016a1.147,1.147,0,0,0,.1.125l.025.025a1.121,1.121,0,0,0,.148.126l.009.007,0,0a1.107,1.107,0,0,0,.139.082l.039.017c.034.015.069.029.1.041l.056.017c.032.009.065.016.1.022l.055.01a1.13,1.13,0,0,0,.142.01h.018a1.131,1.131,0,0,0,.142-.01l.055-.01c.033-.006.065-.013.1-.022l.056-.017c.035-.012.07-.026.1-.041l.039-.017a1.115,1.115,0,0,0,.139-.081l0,0,.009-.007a1.132,1.132,0,0,0,.148-.126l.025-.025a1.132,1.132,0,0,0,.1-.125l.009-.016a1.118,1.118,0,0,0,.123-.239l5.821-11.342a1.263,1.263,0,0,1,1.585-.418,15.052,15.052,0,0,1,4.6,3.43,1.126,1.126,0,0,0,1.1.344,15.188,15.188,0,0,1,2.986,7.76,22.036,22.036,0,0,1-.145,5.719,2.44,2.44,0,0,0-.905-.343l.61-3.213a.748.748,0,0,0-.662-.885l-1.96-.194a51.887,51.887,0,0,1-1.439,8.7s1.1-6.919,1.1-8.837a1.51,1.51,0,0,0-1.781-1.644,1.412,1.412,0,0,0-1.212,1.366c-.051,1.22-.758,6.487-1.015,8.311s-.771,4.265-.771,4.265a1.406,1.406,0,0,0,.814,1.764c1.242.548,2.038-.822,2.038-.822a4.629,4.629,0,0,0,.231-1.276l.043.009a2.472,2.472,0,0,0,2.946-1.956h0l.171.026a2.471,2.471,0,0,0,2.81-2.061l.115-.749a2.444,2.444,0,0,0-.249-1.5A23.118,23.118,0,0,0,183.033,112.8Z"
        transform="translate(-146.56 -98.959)" fill="url(#linear-gradient)" />
    </g>
  </g>
</svg>