<svg xmlns="http://www.w3.org/2000/svg" xmlns:xlink="http://www.w3.org/1999/xlink" viewBox="0 0 84.74 58.04">
    <defs>
        <linearGradient id="linear-gradient" x1="-8.44" y1="27.73" x2="5.65" y2="27.9" gradientUnits="userSpaceOnUse">
            <stop offset="0" stop-opacity="0.5" />
            <stop offset="1" stop-color="#d30012" />
        </linearGradient>
    </defs>
    <g id="Layer_2" data-name="Layer 2">
        <g id="Layer_1-2" data-name="Layer 1">
            <path class="cls-1" fill="#d30012"
                d="M84.74,54.88a53.1,53.1,0,0,1-9.58,2.48,55.2,55.2,0,0,1-6.8.65c-15.25.53-29.06-5-44.43-6A65,65,0,0,0,.84,54.62c-.26.07-.51.16-.77.24l-.06,0H0c0-.81,0-25.46,0-26s0-25.46,0-26l.13,0c.13-.06.26-.1.4-.15C7.35.29,17.85-.27,24.38.11,38.66.94,52.79,6.2,66.92,5.78a46.14,46.14,0,0,0,5.35-.45l1-.15a41.48,41.48,0,0,0,8.3-2.25c-2,4.82-12,28.86-12,28.87S82.5,51.33,84.74,54.88Z" />
            <path class="cls-2" fill="url(#linear-gradient)"
                d="M8.21,26.89c0,.51,0,25.16,0,26A57.93,57.93,0,0,0,.84,54.62L0,54.88c0-.51,0-25.47,0-26s0-25.46,0-26l.53-.19A42.5,42.5,0,0,1,8.34.88l-.13,0C8.18,1.43,8.25,26.38,8.21,26.89Z" />
            <path class="cls-3" fill="#fff"
                d="M13.89,18c.34.43,6.51,8.55,6.86,9,0-.62.3-8.62.32-9.24l3.66.18c0,.64-.45,15.29-.47,15.93-.47,0-3.05-.17-3.52-.18-.36-.49-6.79-8.95-7.14-9.39,0,.64-.41,9-.44,9.6-.5,0-3.25.38-3.75.46,0-.63.79-15.29.83-15.93C10.72,18.38,13.4,18.05,13.89,18Z" />
            <path class="cls-3" fill="#fff"
                d="M27.35,18.2c.62.06,11.84,1.72,12.46,1.83,0,.45,0,2.95,0,3.4-.58-.1-8-1.3-8.63-1.38l-.05,2.87c.57.08,5.15.78,5.72.88,0,.44,0,2.84,0,3.28-.57-.1-5.17-.8-5.75-.88,0,.6,0,2.41-.06,3,.59.09,8.25,1.32,8.84,1.43,0,.45,0,2.94,0,3.4-.57-.1-12.29-1.84-12.86-1.9C27,33.49,27.33,18.83,27.35,18.2Z" />
            <path class="cls-3" fill="#fff"
                d="M44.7,36.92c-.13-.61-.26-1.18-.38-1.74s-.23-1.09-.34-1.61-.22-1-.32-1.49-.21-1-.31-1.43l-.3-1.37c-.09-.46-.19-.91-.29-1.37s-.19-.91-.29-1.37-.2-.94-.3-1.43-.2-1-.31-1.5L41.52,22c-.11-.55-.23-1.13-.36-1.73l4,.73c.11.58,1.85,9.64,2,10.23.16-.54,2.56-8.85,2.71-9.39l3.63.6c.17.59,2.77,9.73,2.94,10.31l1.74-9.64c.51.06,3.34.36,3.86.4-.12.64-3,15.06-3.17,15.69l-4.21-.58c-.17-.61-2.8-10.05-3-10.67-.16.56-2.59,9.17-2.75,9.72Z" />
        </g>
    </g>
</svg>