<svg xmlns="http://www.w3.org/2000/svg" xmlns:xlink="http://www.w3.org/1999/xlink" width="348.81" height="273.206" viewBox="0 0 348.81 273.206">
  <defs>
    <linearGradient id="linear-gradient" y1="0.5" x2="1" y2="0.5" gradientUnits="objectBoundingBox">
      <stop offset="0" stop-color="#f79239"/>
      <stop offset="1" stop-color="#f7c759"/>
    </linearGradient>
    <clipPath id="clip-path">
      <path id="Path_2079" data-name="Path 2079" d="M498.508,421.679l-.6,4.014-4.567,30.32-.209,1.351a3.235,3.235,0,0,1-3.191,2.75H469.476a3.239,3.239,0,0,1-3.18-2.712l-.233-1.388-5.007-30.32-.652-3.965a3.234,3.234,0,0,1,3.192-3.769H495.3A3.244,3.244,0,0,1,498.508,421.679Z" transform="translate(-460.358 -417.959)" fill="none"/>
    </clipPath>
    <linearGradient id="linear-gradient-3" x1="0.6" y1="0.879" x2="0.439" y2="0.025" gradientUnits="objectBoundingBox">
      <stop offset="0" stop-color="#3f2323"/>
      <stop offset="1" stop-color="#5e3434"/>
    </linearGradient>
    <linearGradient id="linear-gradient-4" x1="0.609" y1="0.825" x2="0.437" y2="0.152" gradientUnits="objectBoundingBox">
      <stop offset="0" stop-color="#3855e1"/>
      <stop offset="1" stop-color="#5c7ef7"/>
    </linearGradient>
  </defs>
  <g id="intro-2" transform="translate(-437 -257.815)">
    <g id="Group_5479" data-name="Group 5479" transform="translate(457.75 257.815)">
      <g id="Group_5477" data-name="Group 5477">
        <path id="Path_2049" data-name="Path 2049" d="M761.04,401.1a50.667,50.667,0,0,1-1.172,6.809q-.146.691-.335,1.381a60.112,60.112,0,0,1-10.785,21.166c-.293.377-.586.754-.893,1.13-34.755,43.1-130.232,62.353-207.5,30.151-.711-.293-1.423-.6-2.135-.907a186.2,186.2,0,0,1-18.961-9.474c-29.7-17.064-49.057-40.364-59.1-64.893a.014.014,0,0,1-.014-.014c-.5-1.242-.977-2.484-1.437-3.739-15.655-42.387-3.893-87.677,29.942-110.433q.586-.419,1.214-.8a86.049,86.049,0,0,1,29.4-11.915c2.511-.53,4.967-.921,7.395-1.2.46-.07.921-.112,1.381-.153,35.913-3.628,62.535,18.166,84.286,41.215.335.349.656.7.977,1.032,7.395,7.869,14.2,15.864,20.65,22.98.307.349.628.7.935,1.046,14.817,16.269,27.612,27.709,40.6,22.366C723.117,327.263,767.374,339.5,761.04,401.1Z" transform="translate(-451.872 -257.815)" fill="#e4ebf7"/>
        <path id="Path_2050" data-name="Path 2050" d="M620.759,279.461c-16.182-21.849-40.528,1.86-25.945,23.254S660.023,332.48,620.759,279.461Z" transform="translate(-397.144 -252.694)" fill="#e4ebf7"/>
      </g>
      <g id="Group_5478" data-name="Group 5478" transform="translate(6.834 0.398)">
        <path id="Path_2051" data-name="Path 2051" d="M757.932,372.528q-.147.691-.335,1.381c-30.779-10.255-83.938-16.408-171.656,2.539-54.861,11.832-96.467,4.7-123.646-21.208-1.409-1.353-2.763-2.735-4.074-4.158a.014.014,0,0,1-.014-.014c-.5-1.242-.977-2.484-1.437-3.739a88.659,88.659,0,0,0,6.488,6.893c26.83,25.575,68,32.593,122.376,20.859C673.506,356.12,726.916,362.259,757.932,372.528Z" transform="translate(-456.77 -222.833)" fill="#fff"/>
        <path id="Path_2052" data-name="Path 2052" d="M724.287,385.37c-.293.377-.586.753-.893,1.13-29.593-14.357-73.655-22.045-132.115,3.837-28.7,12.711-53.814,21.026-75.385,26.314-.711-.293-1.423-.6-2.135-.907,21.891-5.246,47.522-13.631,76.961-26.677C649.824,362.879,694.4,370.776,724.287,385.37Z" transform="translate(-434.245 -213.128)" fill="#fff"/>
        <path id="Path_2053" data-name="Path 2053" d="M624.465,320.615c-12.027,11.818-28.951,21.584-52.726,25.268a89.168,89.168,0,0,1-13.394,1.06,67.075,67.075,0,0,1-42.234-14.231c-20.831-16.2-32.049-43.392-37.881-64.307q.586-.419,1.214-.8c5.748,20.761,16.827,47.913,37.518,64,15.194,11.8,33.542,16.143,54.568,12.892,23.468-3.642,40.141-13.283,52-24.933C623.837,319.917,624.158,320.266,624.465,320.615Z" transform="translate(-448.288 -254.341)" fill="#fff"/>
        <path id="Path_2054" data-name="Path 2054" d="M592.114,300.348c-9.209,12.92-22.687,23.705-42.108,24.193h-.893a31.069,31.069,0,0,1-22.77-9.7c-12.711-12.836-18.375-36.513-20.873-56.591.46-.07.921-.112,1.381-.154,2.456,19.854,8.009,43.183,20.482,55.768a29.875,29.875,0,0,0,22.631,9.278c18.989-.488,32.174-11.106,41.174-23.831C591.472,299.664,591.793,300.013,592.114,300.348Z" transform="translate(-437.522 -258.1)" fill="#fff"/>
      </g>
    </g>
    <ellipse id="Ellipse_580" data-name="Ellipse 580" cx="174.405" cy="7.529" rx="174.405" ry="7.529" transform="translate(437 515.962)" fill="#e4ebf7"/>
    <ellipse id="Ellipse_581" data-name="Ellipse 581" cx="28.095" cy="2.746" rx="28.095" ry="2.746" transform="translate(466.384 519.308)" fill="#c3cddd"/>
    <ellipse id="Ellipse_582" data-name="Ellipse 582" cx="98.94" cy="4.062" rx="98.94" ry="4.062" transform="translate(508.855 519.695)" fill="#c3cddd"/>
    <path id="Path_2055" data-name="Path 2055" d="M686.926,448.892c0,1.409-13.341,2.552-29.8,2.552s-29.8-1.143-29.8-2.552,13.341-2.553,29.8-2.553S686.926,447.482,686.926,448.892Z" transform="translate(75.227 74.512)" fill="#c3cddd"/>
    <g id="Group_5480" data-name="Group 5480" transform="translate(606.653 335.474)">
      <path id="Path_2056" data-name="Path 2056" d="M598.161,316.51s2.158,2.779-8.539,1.849-13.486.123-16.743,5.294-9.683,7.278-12.748,3.667-.6.07-.6.07l17.767,30.27s18.022,5.694,19.185-5,3.837-13.479,7.092-15.572a11.781,11.781,0,0,0,4.419-5.125S607.631,321.406,598.161,316.51Z" transform="translate(-558.594 -312.276)" fill="#fff19c"/>
      <path id="Path_2057" data-name="Path 2057" d="M597.25,315.711l1.737-.851a3.173,3.173,0,0,1,4.085,1.132h0a2.783,2.783,0,0,1-.965,3.826l-1.239.777Z" transform="translate(-543.316 -313.057)" fill="#70b2dd"/>
      <path id="Path_2058" data-name="Path 2058" d="M586.953,317.563l5.631-2.806a8.672,8.672,0,0,1,11.184,3.107h0a8.67,8.67,0,0,1-2.182,11.642l-5.433,3.992Z" transform="translate(-547.386 -313.329)" fill="#abdaf7"/>
      <path id="Path_2059" data-name="Path 2059" d="M596.289,332.47c-1.172.67-4.172-2.344-6.725-6.739s-3.642-8.525-2.483-9.195c1.046-.6,3.572,1.758,5.93,5.441.265.419.53.851.8,1.312.363.628.7,1.242,1,1.856C596.61,328.787,597.279,331.9,596.289,332.47Z" transform="translate(-547.518 -312.302)" fill="#cae9f9"/>
      <path id="Path_2060" data-name="Path 2060" d="M593.474,323.577a1.9,1.9,0,0,1-1.507.726,1.957,1.957,0,0,1-.293-3.893c.265.419.53.851.8,1.312C592.832,322.349,593.167,322.963,593.474,323.577Z" transform="translate(-546.182 -310.734)" fill="#70b2dd"/>
      <path id="Path_2061" data-name="Path 2061" d="M607.981,372.233l-1.95-.066c0-.026.084-2.641,0-6.661l-.008-.38c-.1-4.364-.342-14.587,9.175-19.434,3.536-1.8,5.98-6.178,6.537-11.708.656-6.519-1.371-12.861-5.045-15.784-7.059-5.612-14.784-1.006-14.861-.957l-1.019-1.669c.089-.052,8.984-5.356,17.094,1.1,4.175,3.319,6.495,10.355,5.773,17.509-.633,6.284-3.4,11.114-7.594,13.252-8.42,4.289-8.21,13.311-8.109,17.648l.01.382C608.069,369.543,607.982,372.2,607.981,372.233Z" transform="translate(-541.91 -313.475)" fill="#4e8fb7"/>
      <path id="Path_2062" data-name="Path 2062" d="M620.766,363.809l-10.646-7.827a2.548,2.548,0,0,0-2.973-.031L596,363.793Z" transform="translate(-543.81 -296.87)" fill="#4e8fb7"/>
    </g>
    <g id="Group_5483" data-name="Group 5483" transform="translate(524.657 351.441)">
      <path id="Path_2063" data-name="Path 2063" d="M509.438,331.6l-9.482,36.686a3.933,3.933,0,0,0,3.731,4.963h25.857Z" transform="translate(-499.826 -322.278)" fill="#404347"/>
      <path id="Path_2064" data-name="Path 2064" d="M518.369,372.681,506.01,330.652a4.472,4.472,0,0,1,4.29-5.733h64.759a4.469,4.469,0,0,1,4.3,3.261l11.827,42.029a4.472,4.472,0,0,1-4.306,5.683H522.66A4.472,4.472,0,0,1,518.369,372.681Z" transform="translate(-497.454 -324.919)" fill="#525559"/>
      <path id="Path_2065" data-name="Path 2065" d="M521.266,372.681l-12.359-42.029a4.471,4.471,0,0,1,4.29-5.733h64.759a4.47,4.47,0,0,1,4.3,3.261l11.826,42.029a4.471,4.471,0,0,1-4.3,5.683H525.557A4.472,4.472,0,0,1,521.266,372.681Z" transform="translate(-496.309 -324.919)" fill="#707377"/>
      <g id="Group_5481" data-name="Group 5481" transform="translate(23.779 5.585)">
        <path id="Path_2066" data-name="Path 2066" d="M585.293,368.728H529.874a3.139,3.139,0,0,1-3.014-2.26l-7.493-25.449L517,332.954a3.146,3.146,0,0,1,3.014-4.032h55.851a3.14,3.14,0,0,1,3.028,2.288l9.432,33.528A3.137,3.137,0,0,1,585.293,368.728Z" transform="translate(-516.869 -328.922)" fill="#fff"/>
        <path id="Path_2067" data-name="Path 2067" d="M571.522,350.311v4.995s-7.144-3.488-17.733,1.172-19.185,2.9-25.463-10a9.161,9.161,0,0,0-8.958-5.455L517,332.954a3.146,3.146,0,0,1,3.014-4.032h12.976a22.1,22.1,0,0,1,4.646,6.39c6.041,12.445,8.134,15.7,18.25,14.064S571.522,350.311,571.522,350.311Z" transform="translate(-516.869 -328.922)" fill="url(#linear-gradient)"/>
        <path id="Path_2068" data-name="Path 2068" d="M547.8,330.052a6.125,6.125,0,0,1-12.25,0,5.969,5.969,0,0,1,.112-1.13h12.027A5.969,5.969,0,0,1,547.8,330.052Z" transform="translate(-509.485 -328.922)" fill="url(#linear-gradient)"/>
      </g>
      <g id="Group_5482" data-name="Group 5482" transform="translate(17.737 14.152)">
        <path id="Path_2069" data-name="Path 2069" d="M517.908,338.38h-3.986a.792.792,0,0,1-.748-.536l-.593-1.734a.792.792,0,0,1,.749-1.048h3.985a.791.791,0,0,1,.749.536l.593,1.734A.792.792,0,0,1,517.908,338.38Z" transform="translate(-512.538 -335.062)" fill="#525559"/>
        <path id="Path_2070" data-name="Path 2070" d="M519.13,343.256h-3.985a.792.792,0,0,1-.749-.536l-.593-1.734a.792.792,0,0,1,.749-1.048h3.986a.791.791,0,0,1,.748.536l.593,1.734A.792.792,0,0,1,519.13,343.256Z" transform="translate(-512.055 -333.135)" fill="#525559"/>
        <path id="Path_2071" data-name="Path 2071" d="M520.412,348.131h-3.986a.793.793,0,0,1-.749-.536l-.592-1.734a.79.79,0,0,1,.748-1.046h3.986a.793.793,0,0,1,.749.534l.592,1.736A.79.79,0,0,1,520.412,348.131Z" transform="translate(-511.548 -331.207)" fill="#525559"/>
      </g>
    </g>
    <g id="Group_5487" data-name="Group 5487" transform="translate(505.367 402.413)">
      <g id="Group_5484" data-name="Group 5484" transform="translate(3.488 14.888)">
        <path id="Path_2072" data-name="Path 2072" d="M489.9,479.621a1.4,1.4,0,0,1,0-2.79,5.575,5.575,0,0,0,5.55-5.194l6.545-98.211a1.4,1.4,0,1,1,2.785.186l-6.544,98.211A8.374,8.374,0,0,1,489.9,479.621Z" transform="translate(-488.5 -372.123)" fill="#90c6e0"/>
        <path id="Path_2073" data-name="Path 2073" d="M519.525,479.621a1.4,1.4,0,0,0,0-2.79,5.577,5.577,0,0,1-5.552-5.194l-6.544-98.211a1.4,1.4,0,1,0-2.785.186l6.544,98.211A8.374,8.374,0,0,0,519.525,479.621Z" transform="translate(-482.12 -372.123)" fill="#90c6e0"/>
      </g>
      <g id="Group_5485" data-name="Group 5485" transform="translate(153.476 14.888)">
        <path id="Path_2074" data-name="Path 2074" d="M597.4,479.621a1.4,1.4,0,1,1,0-2.79,5.575,5.575,0,0,0,5.55-5.194l6.545-98.211a1.4,1.4,0,1,1,2.785.186l-6.544,98.211A8.374,8.374,0,0,1,597.4,479.621Z" transform="translate(-596 -372.123)" fill="#90c6e0"/>
        <path id="Path_2075" data-name="Path 2075" d="M627.025,479.621a1.4,1.4,0,0,0,0-2.79,5.577,5.577,0,0,1-5.552-5.194l-6.544-98.211a1.4,1.4,0,1,0-2.785.186l6.544,98.211A8.374,8.374,0,0,0,627.025,479.621Z" transform="translate(-589.62 -372.123)" fill="#90c6e0"/>
      </g>
      <g id="Group_5486" data-name="Group 5486">
        <rect id="Rectangle_2679" data-name="Rectangle 2679" width="193.415" height="4.255" fill="#abdaf7"/>
        <rect id="Rectangle_2680" data-name="Rectangle 2680" width="150.961" height="4.255" transform="translate(42.454)" fill="#70b2dd"/>
        <path id="Path_2076" data-name="Path 2076" d="M674.195,364.5v5.148a11.778,11.778,0,0,1-11.776,11.776H501.276A11.778,11.778,0,0,1,489.5,369.65V364.5Z" transform="translate(-484.617 -360.246)" fill="#70b2dd"/>
        <path id="Path_2077" data-name="Path 2077" d="M664.216,364.5v5.148c0,6.5-4.918,11.776-10.982,11.776H514.746V364.5Z" transform="translate(-474.638 -360.246)" fill="#4e8fb7"/>
      </g>
    </g>
    <g id="Group_5493" data-name="Group 5493" transform="translate(469.591 481.254)">
      <path id="Path_2078" data-name="Path 2078" d="M460.4,421.721l5.889,35.68a3.233,3.233,0,0,0,3.189,2.707H489.94a3.233,3.233,0,0,0,3.2-2.751l5.369-35.68a3.233,3.233,0,0,0-3.2-3.714H463.592A3.233,3.233,0,0,0,460.4,421.721Z" transform="translate(-460.358 -417.958)" fill="none" stroke="#90c6e0" stroke-miterlimit="10" stroke-width="1"/>
      <g id="Group_5492" data-name="Group 5492">
        <g id="Group_5491" data-name="Group 5491" clip-path="url(#clip-path)">
          <g id="Group_5490" data-name="Group 5490" transform="translate(-17.508 -18.541)">
            <g id="Group_5488" data-name="Group 5488" transform="translate(0 0)">
              <rect id="Rectangle_2681" data-name="Rectangle 2681" width="51.754" height="1.436" transform="translate(0 36.595) rotate(-45)" fill="#90c6e0"/>
              <rect id="Rectangle_2682" data-name="Rectangle 2682" width="51.754" height="1.424" transform="translate(3.958 40.554) rotate(-45)" fill="#90c6e0"/>
              <rect id="Rectangle_2683" data-name="Rectangle 2683" width="51.754" height="1.436" transform="translate(7.908 44.503) rotate(-45)" fill="#90c6e0"/>
              <rect id="Rectangle_2684" data-name="Rectangle 2684" width="51.754" height="1.424" transform="matrix(0.707, -0.707, 0.707, 0.707, 11.866, 48.461)" fill="#90c6e0"/>
              <rect id="Rectangle_2685" data-name="Rectangle 2685" width="51.754" height="1.436" transform="translate(15.815 52.411) rotate(-45)" fill="#90c6e0"/>
              <rect id="Rectangle_2686" data-name="Rectangle 2686" width="51.754" height="1.424" transform="translate(19.773 56.369) rotate(-45)" fill="#90c6e0"/>
              <rect id="Rectangle_2687" data-name="Rectangle 2687" width="51.754" height="1.436" transform="translate(23.723 60.318) rotate(-45)" fill="#90c6e0"/>
              <rect id="Rectangle_2688" data-name="Rectangle 2688" width="51.754" height="1.436" transform="translate(27.681 64.276) rotate(-45)" fill="#90c6e0"/>
              <rect id="Rectangle_2689" data-name="Rectangle 2689" width="51.754" height="1.436" transform="translate(31.63 68.226) rotate(-45)" fill="#90c6e0"/>
              <rect id="Rectangle_2690" data-name="Rectangle 2690" width="51.754" height="1.436" transform="translate(35.589 72.184) rotate(-45)" fill="#90c6e0"/>
            </g>
            <g id="Group_5489" data-name="Group 5489" transform="translate(0 0.001)">
              <rect id="Rectangle_2691" data-name="Rectangle 2691" width="1.424" height="51.766" transform="translate(35.587 1.007) rotate(-45.004)" fill="#90c6e0"/>
              <rect id="Rectangle_2692" data-name="Rectangle 2692" width="1.436" height="51.766" transform="translate(31.63 4.964) rotate(-45)" fill="#90c6e0"/>
              <rect id="Rectangle_2693" data-name="Rectangle 2693" width="1.424" height="51.766" transform="translate(27.681 8.913) rotate(-45)" fill="#90c6e0"/>
              <rect id="Rectangle_2694" data-name="Rectangle 2694" width="1.436" height="51.766" transform="translate(23.723 12.871) rotate(-45)" fill="#90c6e0"/>
              <rect id="Rectangle_2695" data-name="Rectangle 2695" width="1.436" height="51.766" transform="matrix(0.707, -0.707, 0.707, 0.707, 19.766, 16.828)" fill="#90c6e0"/>
              <rect id="Rectangle_2696" data-name="Rectangle 2696" width="1.436" height="51.766" transform="translate(15.815 20.779) rotate(-45)" fill="#90c6e0"/>
              <rect id="Rectangle_2697" data-name="Rectangle 2697" width="1.436" height="51.766" transform="translate(11.857 24.737) rotate(-45)" fill="#90c6e0"/>
              <rect id="Rectangle_2698" data-name="Rectangle 2698" width="1.424" height="51.766" transform="translate(7.908 28.687) rotate(-45)" fill="#90c6e0"/>
              <rect id="Rectangle_2699" data-name="Rectangle 2699" width="1.436" height="51.766" transform="matrix(0.707, -0.707, 0.707, 0.707, 3.951, 32.644)" fill="#90c6e0"/>
              <rect id="Rectangle_2700" data-name="Rectangle 2700" width="1.424" height="51.766" transform="translate(0 36.594) rotate(-45)" fill="#90c6e0"/>
            </g>
          </g>
        </g>
      </g>
      <path id="Path_2080" data-name="Path 2080" d="M498.508,421.679l-.6,4.014H461.055l-.652-3.965a3.234,3.234,0,0,1,3.192-3.769H495.3A3.244,3.244,0,0,1,498.508,421.679Z" transform="translate(-460.358 -417.959)" fill="#90c6e0"/>
      <path id="Path_2081" data-name="Path 2081" d="M491.724,445.233l-.209,1.351a3.235,3.235,0,0,1-3.191,2.75H467.86a3.239,3.239,0,0,1-3.18-2.712l-.233-1.388Z" transform="translate(-458.743 -407.179)" fill="#90c6e0"/>
    </g>
    <g id="Group_5494" data-name="Group 5494" transform="translate(706.734 367.644)">
      <path id="Path_2082" data-name="Path 2082" d="M663.554,392.481,651.6,409.656l-2,2.874-10.925-21.389a47.121,47.121,0,0,1,11.859-30.807c12.069-13.311,10.353-23.077,10.213-23.8C661.419,337.634,674.437,360.014,663.554,392.481Z" transform="translate(-627.027 -336.532)" fill="#abdaf7"/>
      <path id="Path_2083" data-name="Path 2083" d="M659.9,392.481l-11.957,17.175c-.223-3.628.851-11.65,7.771-28.979,8.8-22.045,4.032-37.992,1.381-44.145C657.765,337.634,670.782,360.014,659.9,392.481Z" transform="translate(-623.372 -336.532)" fill="#90c6e0"/>
      <path id="Path_2084" data-name="Path 2084" d="M659.639,405.843,657.783,418.4h-17.2s-12.794-8.385-8.846-28.951c3.879-20.091-1.186-28.561-1.409-28.937a.684.684,0,0,1,.139.056C653.165,369.5,658.941,405.146,659.639,405.843Z" transform="translate(-630.325 -327.054)" fill="#90c6e0"/>
      <path id="Path_2085" data-name="Path 2085" d="M659.6,405.827l-1.856,12.557s-6.111,0-9.767-25.812c-3.432-24.193-15.989-31.225-17.552-32.021C653.125,369.482,658.9,405.13,659.6,405.827Z" transform="translate(-630.285 -327.038)" fill="#70b2dd"/>
      <path id="Path_2086" data-name="Path 2086" d="M673.581,402s0,4.646-.4,12.055c-.7,12.6-2.581,33.165-7.66,52.363H640.375c-5.079-19.2-6.962-39.764-7.66-52.363-.4-7.409-.4-12.055-.4-12.055Z" transform="translate(-629.54 -310.656)" fill="#90c6e0"/>
      <path id="Path_2087" data-name="Path 2087" d="M673.581,402s0,4.646-.4,12.055H632.715c-.4-7.409-.4-12.055-.4-12.055Z" transform="translate(-629.54 -310.656)" fill="#70b2dd"/>
      <path id="Path_2088" data-name="Path 2088" d="M687.923,379.028a.921.921,0,0,1-.126.028.411.411,0,0,1-.14.028c-1.367.251-7.632,1.367-12.669,1.814h-.125a12.723,12.723,0,0,1-5.708-.846c-4.935,12.388.165,22.928-6.528,33.508H645.884s-5.923-31.044,12.362-38.885a16.93,16.93,0,0,1,4.381-1.409c18.626-2.609,20.915,5.72,25.268,5.762Z" transform="translate(-624.537 -322.214)" fill="#70b2dd"/>
      <path id="Path_2089" data-name="Path 2089" d="M684.134,379.028a.892.892,0,0,1-.1.028.411.411,0,0,1-.14.028,52.2,52.2,0,0,1-12.669,1.814H671.1c-6.1-.028-12.125-3.111-16.617-6.223a13.136,13.136,0,0,1,4.381-1.409C677.492,370.656,679.781,378.986,684.134,379.028Z" transform="translate(-620.776 -322.214)" fill="#90c6e0"/>
    </g>
    <g id="Group_5501" data-name="Group 5501" transform="translate(546.996 303.674)">
      <g id="Group_5495" data-name="Group 5495" transform="translate(73.028 142.753)">
        <path id="Path_2090" data-name="Path 2090" d="M580.523,453.077s-3.619-13.139-.721-16.8l15.371-.523s2.209,3.953,2.326,17.325Z" transform="translate(-564.028 -376.1)" fill="#9eb2ef"/>
        <path id="Path_2091" data-name="Path 2091" d="M568.178,397.608l11.786,55.565h22.847L594.439,393Z" transform="translate(-568.178 -392.998)" fill="#1b3151"/>
      </g>
      <g id="Group_5497" data-name="Group 5497" transform="translate(18.601 115.021)">
        <path id="Path_2092" data-name="Path 2092" d="M560.231,437.5a31.721,31.721,0,0,1,.908,14.883H529.98c-1.662,0-.677-3.131,2.093-5.465,4.015-3.385,10.877-6.665,11.329-9.418Z" transform="translate(-529.168 -347.677)" fill="#9eb2ef"/>
        <g id="Group_5496" data-name="Group 5496" transform="translate(5.344)">
          <path id="Path_2093" data-name="Path 2093" d="M559.51,403.692l1.228,59.256H539.447s-7.674-53.717-6.279-67.139,21.291-22.686,21.291-22.686l19.868,18.668L559.51,403.65Z" transform="translate(-532.998 -373.122)" fill="#23406d"/>
          <path id="Path_2094" data-name="Path 2094" d="M559,455.092H540.15c-1.074-8.609-4.255-36.179-1.911-48.3C541.029,392.306,555.707,393,555.707,393l2.065,2.832Z" transform="translate(-531.26 -365.266)" fill="#1b3151"/>
        </g>
      </g>
      <g id="Group_5498" data-name="Group 5498" transform="translate(32.842)">
        <path id="Path_2095" data-name="Path 2095" d="M576.785,324.757a3.861,3.861,0,0,0,.989-5.051s3.074-8.345,1.427-14.824-5.6-5.27-5.6-5.27.769-4.613-4.722-7.686-15.812.219-20.2,2.744-5.709-2.525-7.247-1.646-1.538,6.039,3.184,8.455c0,0-4.721-3.075-5.16-.769s.767,9.224,9.333,12.627l8.784,17.9,14.714-1.646S578.214,330.467,576.785,324.757Z" transform="translate(-539.375 -290.683)" fill="url(#linear-gradient-3)"/>
        <path id="Path_2096" data-name="Path 2096" d="M545.176,303.458s.219,29.11,10.541,24.217l2.086,3.343,17.679-3.127-.989-8.183s-2.616,3.2-10.541,3.075c-7.13-.11-6.994-6.408-6.994-6.408s4.275-.989,2.189-5.93-6.369-2.855-4.722,3.843c0,0-4.527-1.716-3.43-8.525C551,305.763,547.043,305.544,545.176,303.458Z" transform="translate(-537.083 -285.634)" fill="#feb19e"/>
      </g>
      <g id="Group_5500" data-name="Group 5500" transform="translate(0 38.83)">
        <path id="Path_2097" data-name="Path 2097" d="M572.775,321.835s8.454-1.147,16.128,8.853,21.626,37.323,2.326,36.857S572.775,321.835,572.775,321.835Z" transform="translate(-493.334 -317.217)" fill="#3150bc"/>
        <path id="Path_2098" data-name="Path 2098" d="M554,327.451l.206-2.839a5.031,5.031,0,0,1,3.9-4.535,61.284,61.284,0,0,1,13-1.563,5.052,5.052,0,0,1,4.775,3.251l1.136,3.011Z" transform="translate(-500.753 -318.514)" fill="#9eb2ef"/>
        <path id="Path_2099" data-name="Path 2099" d="M619.427,380.052s-10.464,22.7-29.481,29.509-28.937-16.087-28.937-16.087l6.293-4.953-1.437-9.655-1.172-7.911-.572-3.907-.125.209a55.367,55.367,0,0,1-7.6,9.934c-3.865,3.893-8.72,7.088-13.52,5.651-4.423-1.325-8.86-5.986-12.487-10.911a99.6,99.6,0,0,1-8.441-13.938c-3.056-1.493-6.111-8.371-5.414-12.39s5.148-5.232,5.148-5.232l4.883,3.4s2.79-2.26,4.269.53.7,8.776.7,8.776l5.441,3.014,6.53,3.614s3.083-15.585,10.171-25.7,16.129-10.464,24.012-11.4c23.789-2.818,25.672-.167,33,16,.056.14.126.293.2.446C618.381,355.635,619.427,380.052,619.427,380.052Z" transform="translate(-515.603 -317.283)" fill="url(#linear-gradient-4)"/>
        <path id="Path_2100" data-name="Path 2100" d="M606.8,375.241s-10.464,22.7-29.481,29.509-28.937-16.087-28.937-16.087l6.292-4.953-1.437-9.655c4.018-4.325,11.664-10.534,26.007-17.161,14.148-6.558,18.166-15.822,18.808-23.091.056.14.126.293.2.446C605.752,350.824,606.8,375.241,606.8,375.241Z" transform="translate(-502.974 -312.471)" fill="#3150bc" opacity="0.3" style="mix-blend-mode: multiply;isolation: isolate"/>
        <path id="Path_2101" data-name="Path 2101" d="M553.1,361.134a55.366,55.366,0,0,1-7.6,9.934c-4.674-13.813,3.1-33.946,3.1-33.946Z" transform="translate(-504.706 -311.159)" fill="#3150bc" opacity="0.3" style="mix-blend-mode: multiply;isolation: isolate"/>
        <g id="Group_5499" data-name="Group 5499" transform="translate(0 11.662)">
          <path id="Path_2102" data-name="Path 2102" d="M530.383,366.622a99.6,99.6,0,0,1-8.441-13.938c-3.056-1.493-6.111-8.371-5.414-12.39s5.148-5.232,5.148-5.232l4.883,3.4s2.79-2.26,4.269.53.7,8.776.7,8.776l5.441,3.014C534.011,354.037,529.518,360.162,530.383,366.622Z" transform="translate(-515.603 -323.635)" fill="#feb19e"/>
          <path id="Path_2103" data-name="Path 2103" d="M526.794,341.7,518,327.43a1.171,1.171,0,0,0-1.6-.391h0a1.172,1.172,0,0,0-.38,1.639l9.284,14.333S526.71,342.75,526.794,341.7Z" transform="translate(-515.837 -326.872)" fill="#525559"/>
        </g>
        <path id="Path_2104" data-name="Path 2104" d="M533.136,346.332s-6.139,4.074-7.011,16.719c0,0,2.616,5.93,3.924,6.453s4.408-15.745,9.224-19.776Z" transform="translate(-511.77 -307.519)" fill="#9eb2ef"/>
      </g>
    </g>
    <g id="Group_5502" data-name="Group 5502" transform="translate(573.501 392.391)">
      <path id="Path_2105" data-name="Path 2105" d="M546.4,396.531l-11.569,72.047h5.784l13.75-71.943Z" transform="translate(-534.833 -337.565)" fill="#4e8fb7"/>
      <path id="Path_2106" data-name="Path 2106" d="M550.52,396.531l8.343,72.047h5.348l-6.846-72.047Z" transform="translate(-528.633 -337.565)" fill="#90c6e0"/>
      <path id="Path_2107" data-name="Path 2107" d="M586.965,396.531l11.569,72.047h-5.784L579,396.635Z" transform="translate(-517.377 -337.565)" fill="#90c6e0"/>
      <path id="Path_2108" data-name="Path 2108" d="M581.192,396.531l-8.344,72.047H567.5l6.846-72.047Z" transform="translate(-521.922 -337.565)" fill="#4e8fb7"/>
      <path id="Path_2109" data-name="Path 2109" d="M542.5,415.911s1.409-6.906,4.582-7.865,12.176-.7,14.452-4.028,14.628-42.7,20.62-47.039,44.06-2.168,44.06-2.168l-14.531,52.155a13.04,13.04,0,0,1-12.637,9.705Z" transform="translate(-531.803 -354.269)" fill="#abdaf7"/>
    </g>
  </g>
</svg>
