<svg xmlns="http://www.w3.org/2000/svg" xmlns:xlink="http://www.w3.org/1999/xlink" width="335" height="201.132" viewBox="0 0 335 201.132">
  <defs>
    <linearGradient id="linear-gradient" x1="0.609" y1="0.825" x2="0.437" y2="0.152" gradientUnits="objectBoundingBox">
      <stop offset="0" stop-color="#3855e1"/>
      <stop offset="1" stop-color="#5c7ef7"/>
    </linearGradient>
    <linearGradient id="linear-gradient-2" y1="0.5" x2="1" y2="0.5" gradientUnits="objectBoundingBox">
      <stop offset="0" stop-color="#3f2323"/>
      <stop offset="1" stop-color="#5e3434"/>
    </linearGradient>
  </defs>
  <g id="intro-3" transform="translate(-416.5 -54.852)">
    <g id="Group_5505" data-name="Group 5505" transform="translate(425.666 54.852)">
      <path id="Path_2110" data-name="Path 2110" d="M747.524,194.769c-.091.519-.181,1.024-.272,1.53-6.521,36.662-25.6,52.776-25.6,52.776H435.341s-17.514-32.189-9.814-60.282c.117-.428.233-.856.363-1.27,5.069-16.723,19.368-31.787,52.037-37.453,7.026-1.219,13.5-2.385,19.459-3.5.843-.169,1.659-.324,2.476-.48,20.729-3.967,35.184-7.506,46.177-11.551h.013c.8-.3,1.595-.609,2.372-.907,22.337-8.79,29.972-20.211,49.989-43.416q2.333-2.7,4.978-5.3c.389-.389.778-.765,1.18-1.128a110.717,110.717,0,0,1,40.59-24.242c.415-.143.83-.285,1.245-.415,19.8-6.275,41.3-6.365,59.491,4.615.687.415,1.374.843,2.061,1.3,14.4,9.5,26.537,26.291,33.784,52.88C750.4,149.719,750.765,175.115,747.524,194.769Z" transform="translate(-423.571 -54.852)" fill="#e4ebf7"/>
      <g id="Group_5504" data-name="Group 5504" transform="translate(1.957 4.276)">
        <path id="Path_2111" data-name="Path 2111" d="M677.79,122.42c-4.122,20.781-18.292,37.492-42.107,49.691-46.8,23.944-65.429,53.9-72.792,74.931H561.53l.039-.117c7.376-21.274,26.122-51.713,73.518-75.968,23.452-12,37.388-28.417,41.432-48.783,4.161-21-2.891-43.027-11.512-60.464.687.415,1.374.843,2.061,1.3C675.366,80.326,681.861,101.846,677.79,122.42Z" transform="translate(-384.638 -57.095)" fill="#fff"/>
        <path id="Path_2112" data-name="Path 2112" d="M699.059,162.78c-.091.519-.182,1.024-.272,1.53-16.762,7.714-38.14,16-65.221,24.242-21.442,6.521-36.493,16.088-44.92,28.533H587.09c8.491-13.055,23.944-23.037,46.1-29.778C660.673,178.946,682.232,170.558,699.059,162.78Z" transform="translate(-377.062 -27.139)" fill="#fff"/>
        <path id="Path_2113" data-name="Path 2113" d="M631.267,79.372c-.013,22.6-6.65,53.359-38.14,71.677-13.34,7.765-28.326,10.682-43.338,10.682-20.379,0-40.8-5.38-57.21-11.382-4.161-1.517-8.206-3.124-12.069-4.758.843-.169,1.659-.324,2.476-.48,32.423,13.366,76.305,24.126,109.493,4.823,30.958-18.007,37.478-48.316,37.491-70.562a134.152,134.152,0,0,0-1.685-20.807c.415-.143.83-.285,1.245-.415A135.821,135.821,0,0,1,631.267,79.372Z" transform="translate(-408.651 -58.15)" fill="#fff"/>
        <path id="Path_2114" data-name="Path 2114" d="M573.289,117.514c-6.313,8.336-17.488,12.51-33.382,12.51a129.031,129.031,0,0,1-21.857-2.1c.8-.3,1.595-.609,2.372-.907,26.07,4.187,43.468.752,51.83-10.28,7.493-9.866,6.676-24.554,3.137-38.438.389-.389.778-.765,1.18-1.128C580.341,91.534,581.288,106.974,573.289,117.514Z" transform="translate(-397.525 -52.513)" fill="#fff"/>
        <path id="Path_2115" data-name="Path 2115" d="M578.689,218.742h-1.335c-2.748-10.851-7.843-22.57-17.138-32.086-15.233-15.6-38.36-22.116-68.735-19.355-27.807,2.515-50.053-.454-66.4-8.841.117-.428.233-.856.363-1.27,16.153,8.362,38.231,11.317,65.921,8.815,30.8-2.787,54.267,3.863,69.785,19.757C570.716,195.563,575.915,207.619,578.689,218.742Z" transform="translate(-425.08 -28.796)" fill="#fff"/>
      </g>
    </g>
    <g id="Group_5506" data-name="Group 5506" transform="translate(423.954 184.845)">
      <path id="Path_2116" data-name="Path 2116" d="M465.038,207.143s7.454-16.691-9.723-29.655-21.066-22.363-21.066-22.363-5.8,30.44,4.7,44.887v20.9h25.427Z" transform="translate(-419.168 -155.125)" fill="#4e8fb7"/>
      <path id="Path_2117" data-name="Path 2117" d="M445.776,213.04s-.843-11.667,10.774-19.478S468,177.875,468,177.875s8.923,22.345-2.357,35.165Z" transform="translate(-415.281 -148.382)" fill="#70b2dd"/>
      <path id="Path_2118" data-name="Path 2118" d="M455.323,214.929s1.8-15.719-12.876-24.145S424.7,171.5,424.7,171.5s-8.1,27.386,5.186,43.429Z" transform="translate(-422.25 -150.272)" fill="#abdaf7"/>
    </g>
    <g id="Group_5514" data-name="Group 5514" transform="translate(519.296 89.825)">
      <g id="Group_5509" data-name="Group 5509" transform="translate(10.987 61.644)">
        <g id="Group_5507" data-name="Group 5507" transform="translate(0 65.561)">
          <path id="Path_2119" data-name="Path 2119" d="M521.914,180.986a104.958,104.958,0,0,1-17.644,21.6v7.838H521.8s5.538-2.982,16.634-11.46C538.43,198.967,542.069,174.721,521.914,180.986Z" transform="translate(-504.27 -179.952)" fill="#f49187"/>
          <path id="Path_2120" data-name="Path 2120" d="M608.9,195.09s-.817,15.557-4.706,16.529-19.824-13.457-19.824-13.457l-1.812-6.884,11.806-8.612S608.423,186.988,608.9,195.09Z" transform="translate(-481.066 -179.148)" fill="#f49187"/>
        </g>
        <g id="Group_5508" data-name="Group 5508" transform="translate(17.526)">
          <path id="Path_2121" data-name="Path 2121" d="M628.1,210.884c-3.734-7.13-26.744-1.945-26.744-1.945l16.373,16.477H544.146c2.437-8.478.985-29.117.985-29.117-.013.156-.039.3-.065.454-1.076,8.284-5.458,12.666-5.458,12.666-.311,4.226-5.186,4.537-5.186,4.537a28.652,28.652,0,0,0-2.5-9.347c-4.784-9.891-14.014-8.634-14.014-8.634-.985-5.186,4.537-6.482,4.537-6.482s6.793-39.54,16.685-47.318,26.019-11.667,26.019-11.667l16.607-1.128s32.565,6.482,39.047,17.657,5.354,53.476,5.354,53.476C631.341,204.726,628.1,210.884,628.1,210.884Z" transform="translate(-517.789 -129.38)" fill="url(#linear-gradient)"/>
          <path id="Path_2122" data-name="Path 2122" d="M595.55,201.012s2.755-23.983-6.158-44.887c0,0,1.458,31.761-11.505,40.674s-35,7.13-40.512,22.687l48.615-.432Z" transform="translate(-511.984 -121.453)" fill="#3150bc" opacity="0.3" style="mix-blend-mode: multiply;isolation: isolate"/>
          <path id="Path_2123" data-name="Path 2123" d="M541.835,187.912c-1.076,8.284-5.458,12.666-5.458,12.666-.311,4.226-5.186,4.537-5.186,4.537a28.652,28.652,0,0,0-2.5-9.347A27.439,27.439,0,0,0,535.9,183.79c3.435-11.356,1.245-23.7,1.089-24.579C539.787,169.827,541.317,182.856,541.835,187.912Z" transform="translate(-514.558 -120.539)" fill="#3150bc" opacity="0.3" style="mix-blend-mode: multiply;isolation: isolate"/>
        </g>
      </g>
      <path id="Path_2124" data-name="Path 2124" d="M566,199.149s18.311-12.8,33.868-7.616,14.26,15.881,9.237,17.825H570.321Z" transform="translate(-474.987 -49.681)" fill="#feb19e"/>
      <g id="Group_5510" data-name="Group 5510" transform="translate(43.536)">
        <path id="Path_2125" data-name="Path 2125" d="M575.7,135.014s-3.811,21.39-15.155,21.507c-9.9.091-7.61-12.9-6.871-16.2.1-.493.181-.765.181-.765l-4.11-15.66,21.818-11.551.441,2.4v.039Z" transform="translate(-523.339 -72.786)" fill="#feb19e"/>
        <path id="Path_2126" data-name="Path 2126" d="M553.678,140.316c.1-.493.181-.765.181-.765l-4.11-15.66,21.818-11.551.441,2.4v.039C574.874,140.316,554.08,140.316,553.678,140.316Z" transform="translate(-523.339 -72.786)" fill="#ff856a"/>
        <path id="Path_2127" data-name="Path 2127" d="M580.5,113.732a38.31,38.31,0,0,0,3.565-12.721c.648-6.644-1.215-8.183-3.97-8.183,0,0-1.458-7.536-4.943-10.129s-17.663,1.216-23.091,4.457-9.4-5.687-11.911-5.315-3,7.26-1.053,10.339c0,0-4.537-2.512-5.267-5.105s-5.914,2.107-4.051,11.749,6.158,10.857,6.158,10.857.81,10.209,9.156,11.343,30.384-.81,30.384-.81Z" transform="translate(-529.377 -81.829)" fill="url(#linear-gradient-2)"/>
        <path id="Path_2128" data-name="Path 2128" d="M538.875,104.7s4.051,27.71,14.26,31.275,18.743-7.334,20.04-10.251,1.842-9.031,1.842-9.031,3.478.808,3.884-5.35-4.943-9.8-6.24.81c0,0-5-2.755-3.483-12.154,0,0-5.726,5.4-13.72,5.4s-1.081-5.4-1.081-5.4S548.652,105.293,538.875,104.7Z" transform="translate(-526.562 -76.444)" fill="#feb19e"/>
      </g>
      <g id="Group_5513" data-name="Group 5513" transform="translate(0 130.089)">
        <g id="Group_5511" data-name="Group 5511" transform="translate(53.094 17.488)">
          <rect id="Rectangle_2701" data-name="Rectangle 2701" width="66.548" height="3.565" transform="translate(0 8.535)" fill="#abdaf7"/>
          <rect id="Rectangle_2702" data-name="Rectangle 2702" width="20.526" height="3.565" transform="translate(46.022 8.535)" fill="#70b2dd"/>
          <path id="Path_2129" data-name="Path 2129" d="M585.394,204.309s-5.886-8.782-14.714-8.64c-6.68.106-6.928,4.32-6.928,4.32s-4.39-.522-4.5,4.321Z" transform="translate(-530.081 -195.667)" fill="#ffc7ae"/>
        </g>
        <g id="Group_5512" data-name="Group 5512">
          <path id="Path_2130" data-name="Path 2130" d="M521.448,204.586s.324-4.861-1.836-5.51a3.921,3.921,0,0,0-3.782,1.187s-1.62-7.13-7.671-7.345S491.2,198.86,497.9,204.586Z" transform="translate(-495.795 -178.995)" fill="#feb19e"/>
          <path id="Path_2131" data-name="Path 2131" d="M536.815,203.916a2,2,0,0,1-2,2h-36.4a2,2,0,0,1,0-3.993h36.4A2,2,0,0,1,536.815,203.916Z" transform="translate(-495.609 -176.325)" fill="#70b2dd"/>
          <path id="Path_2132" data-name="Path 2132" d="M526.017,203.916a2,2,0,0,1-2,2h-25.6a2,2,0,0,1,0-3.993h25.6A2,2,0,0,1,526.017,203.916Z" transform="translate(-495.609 -176.325)" fill="#abdaf7"/>
          <path id="Path_2133" data-name="Path 2133" d="M514.291,204.554l-6.453-21.087a1.823,1.823,0,0,0-2.214-1.228h0a1.822,1.822,0,0,0-1.235,2.4l7.715,20.476A1.649,1.649,0,0,0,514.291,204.554Z" transform="translate(-493.283 -182.177)" fill="#525559"/>
        </g>
      </g>
    </g>
    <g id="Group_5516" data-name="Group 5516" transform="translate(441.705 155.734)">
      <path id="Path_2134" data-name="Path 2134" d="M479.121,160.559c.7,4.253-.827,8.049-3.417,8.477s-5.259-2.673-5.963-6.928.828-8.048,3.417-8.476S478.418,156.305,479.121,160.559Z" transform="translate(-425.976 -126.469)" fill="#fff" stroke="#f230db" stroke-miterlimit="10" stroke-width="1"/>
      <path id="Path_2135" data-name="Path 2135" d="M528.475,204.244h-69.11a7.417,7.417,0,0,1-6.871-4.68c-8.089-20.2-14.066-39.838-16.49-58.545a7.4,7.4,0,0,1,7.338-8.349H513.4a7.38,7.38,0,0,1,7.3,6.3c2.632,17.333,7.778,35.91,14.753,55.421A7.389,7.389,0,0,1,528.475,204.244Z" transform="translate(-435.942 -132.67)" fill="#90c6e0"/>
      <path id="Path_2136" data-name="Path 2136" d="M525.675,204.244h-66.31a7.417,7.417,0,0,1-6.871-4.68c-8.089-20.2-14.066-39.838-16.49-58.545a7.4,7.4,0,0,1,7.338-8.349h67.244a7.4,7.4,0,0,1,7.312,6.3c2.619,17.333,7.765,35.91,14.74,55.421A7.382,7.382,0,0,1,525.675,204.244Z" transform="translate(-435.942 -132.67)" fill="#abdaf7"/>
      <g id="Group_5515" data-name="Group 5515" transform="translate(43.287 59.893)">
        <path id="Path_2137" data-name="Path 2137" d="M512.373,212.745h-26.55a9.047,9.047,0,0,1-8.543-6.093l-7.947-27.769c4.395.013,8.712-.013,12.951-.013,1.413,0,2.826,0,4.226.013l6.326,21.6a7.162,7.162,0,0,0,5.6,4.6l9.93,1.556a4.106,4.106,0,0,1,3.371,3.176Z" transform="translate(-469.333 -178.87)" fill="#90c6e0"/>
        <path id="Path_2138" data-name="Path 2138" d="M495.476,205.083l-2.243-.207a8.428,8.428,0,0,1-7.091-5.237l-6.819-20.768c1.413,0,2.826,0,4.226.013l6.326,21.6A7.162,7.162,0,0,0,495.476,205.083Z" transform="translate(-466.372 -178.87)" fill="#90c6e0" opacity="0.35" style="mix-blend-mode: multiply;isolation: isolate"/>
      </g>
      <path id="Path_2139" data-name="Path 2139" d="M478.7,161.14c.984,4.106-.276,7.927-2.814,8.535s-5.394-2.226-6.378-6.333.275-7.927,2.813-8.535S477.718,157.033,478.7,161.14Z" transform="translate(-426.092 -126.133)" fill="#fff"/>
    </g>
    <g id="Group_5517" data-name="Group 5517" transform="translate(416.5 249.502)">
      <rect id="Rectangle_2703" data-name="Rectangle 2703" width="315.67" height="6.482" fill="#70b2dd"/>
      <rect id="Rectangle_2704" data-name="Rectangle 2704" width="70.005" height="6.482" transform="translate(245.665)" fill="#4e8fb7"/>
    </g>
    <g id="Group_5518" data-name="Group 5518" transform="translate(686.473 196.984)">
      <path id="Path_2140" data-name="Path 2140" d="M637.39,188.881l-3.025-18.8-9.615,1.188,3.565,18.687Z" transform="translate(-624.75 -162.831)" fill="#70b2dd"/>
      <path id="Path_2141" data-name="Path 2141" d="M634.285,188.81l3.329-23.2a1.308,1.308,0,0,1,1.51-1.1h0A1.309,1.309,0,0,1,640.2,166l-3.693,24h1.4l4.951-18.391a1.342,1.342,0,0,1,1.62-.953h0a1.341,1.341,0,0,1,.972,1.641L640.829,190l-4.645,2.16Z" transform="translate(-621.924 -164.489)" fill="#4e8fb7"/>
      <path id="Path_2142" data-name="Path 2142" d="M646.748,183.25v23.931a3.837,3.837,0,0,1-3.837,3.837H629.087a3.837,3.837,0,0,1-3.837-3.837V183.25Z" transform="translate(-624.602 -158.929)" fill="#abdaf7"/>
      <rect id="Rectangle_2705" data-name="Rectangle 2705" width="21.498" height="5.613" transform="translate(0.648 24.321)" fill="#90c6e0"/>
    </g>
    <g id="Group_5519" data-name="Group 5519" transform="translate(647.948 63.909)">
      <circle id="Ellipse_583" data-name="Ellipse 583" cx="30.581" cy="30.581" r="30.581" transform="translate(8.452 10.172)" fill="#70b2dd" opacity="0.35" style="mix-blend-mode: multiply;isolation: isolate"/>
      <circle id="Ellipse_584" data-name="Ellipse 584" cx="28.776" cy="28.776" r="28.776" transform="translate(0 25.412) rotate(-26.203)" fill="#70b2dd"/>
      <circle id="Ellipse_585" data-name="Ellipse 585" cx="21.171" cy="21.171" r="21.171" transform="translate(14.431 56.297) rotate(-81.414)" fill="#abdaf7"/>
      <path id="Path_2143" data-name="Path 2143" d="M637.251,94.5H626.821V80.4a2.013,2.013,0,1,0-4.027,0v17.79h14.457a1.849,1.849,0,0,0,0-3.7Z" transform="translate(-586.805 -56.933)" fill="#70b2dd"/>
    </g>
  </g>
</svg>
