<svg xmlns="http://www.w3.org/2000/svg" xmlns:xlink="http://www.w3.org/1999/xlink" width="235.387" height="292.397" viewBox="0 0 235.387 292.397">
  <defs>
    <linearGradient id="linear-gradient" y1="0.5" x2="1" y2="0.5" gradientUnits="objectBoundingBox">
      <stop offset="0" stop-color="#3855e1"/>
      <stop offset="1" stop-color="#5c7ef7"/>
    </linearGradient>
    <linearGradient id="linear-gradient-3" x1="0.609" y1="0.825" x2="0.437" y2="0.152" xlink:href="#linear-gradient"/>
    <linearGradient id="linear-gradient-4" y1="0.5" x2="1" y2="0.5" gradientUnits="objectBoundingBox">
      <stop offset="0" stop-color="#3f2323"/>
      <stop offset="1" stop-color="#5e3434"/>
    </linearGradient>
  </defs>
  <g id="intro-1" transform="translate(-117.717 -48.408)">
    <g id="Group_5453" data-name="Group 5453" transform="translate(117.717 48.408)">
      <path id="Path_1989" data-name="Path 1989" d="M348.3,211.641c-.2.407-.406.8-.614,1.2-10.123,19.337-33,28.266-56,22.3-8.533-2.215-15.892-6.57-24.569-9.948-.746-.3-1.5-.57-2.27-.844-12.285-4.41-27.486-6.45-52.111,2.017-38.29,13.163-70.712,17.845-87.011-6.746q-.313-.444-.592-.921a55.123,55.123,0,0,1-5.639-12.23c-4.5-13.546-.1-29.055,9.6-43.961.308-.472.626-.955.943-1.427a139.732,139.732,0,0,1,27.07-29.032c1.153-.943,2.26-1.931,3.334-2.961.33-.286.659-.6.977-.932A88.222,88.222,0,0,0,176.17,108.2c.185-.33.373-.659.558-.987,7.4-13.4,12.483-27.53,19.316-37.709.559-.833,1.129-1.634,1.733-2.414.252-.339.515-.679.789-1.008a45.68,45.68,0,0,1,7.076-7.119c.3-.253.6-.494.91-.724a47.788,47.788,0,0,1,24.338-9.51l1.372-.132c14.094-1.151,30,2.939,45.7,12.472.417.241.823.493,1.24.756a130.553,130.553,0,0,1,29.965,26.346c.3.34.593.691.889,1.042a183.608,183.608,0,0,1,23.483,36.437c.176.34.34.681.5,1.02q3.587,7.339,6.811,15.378c.132.34.263.679.407,1.02,1.624,4.147,3.181,8.424,4.64,12.855.12.34.229.691.339,1.031,1.6,4.9,3.1,9.959,4.475,15.2C354.822,187.774,353.385,201.156,348.3,211.641Z" transform="translate(-117.717 -48.408)" fill="#e4ebf7"/>
      <g id="Group_5452" data-name="Group 5452" transform="translate(7.406 0.189)">
        <path id="Path_1990" data-name="Path 1990" d="M319.86,156.91a104.949,104.949,0,0,1-32.411,5.517c-10.277,0-20.456-1.887-29.516-6.5-16.792-8.578-27.749-25.238-32.575-49.545-6.1-30.722-14-47.986-20.851-57.693l1.372-.132c6.833,9.97,14.544,27.333,20.554,57.616,4.749,23.956,15.52,40.364,32.006,48.776,18.536,9.466,41.966,7.218,61.084.932C319.641,156.219,319.75,156.569,319.86,156.91Z" transform="translate(-98.739 -48.553)" fill="#fff"/>
        <path id="Path_1991" data-name="Path 1991" d="M303.906,140.116a84.707,84.707,0,0,1-20.863,3c-8.248,0-15.081-1.789-20.586-5.343-11.385-7.36-17.429-22.3-18.471-45.672a289.538,289.538,0,0,0-3.379-33.98c.417.241.823.493,1.24.756a293.839,293.839,0,0,1,3.235,33.169c1.031,23,6.91,37.653,17.977,44.806,9.334,6.032,22.661,6.789,40.44,2.248C303.631,139.436,303.763,139.775,303.906,140.116Z" transform="translate(-87.764 -45.645)" fill="#fff"/>
        <path id="Path_1992" data-name="Path 1992" d="M290.322,117.4a48.326,48.326,0,0,1-11.035,1.47c-6.152,0-10.737-1.754-13.7-5.264-6.527-7.711-4.07-22.321-.143-34.7.3.34.593.691.889,1.042-3.719,11.988-5.957,25.819.087,32.96,4.222,4.979,12.076,6.142,23.4,3.476C289.993,116.72,290.157,117.06,290.322,117.4Z" transform="translate(-81.397 -39.327)" fill="#fff"/>
        <path id="Path_1993" data-name="Path 1993" d="M345.646,186.334c-.2.407-.406.8-.614,1.2a115.643,115.643,0,0,1-14.72.922c-22.891,0-53.986-6.417-91.641-29.6-48.688-29.977-86.4-28.76-109.452-22.463-.944.262-1.876.526-2.787.811.308-.472.626-.955.943-1.427.516-.153,1.031-.3,1.547-.438,23.275-6.361,61.3-7.6,110.32,22.572C285.979,186.675,322.492,189.494,345.646,186.334Z" transform="translate(-122.474 -23.29)" fill="#fff"/>
        <path id="Path_1994" data-name="Path 1994" d="M265.381,191.206c-.746-.3-1.5-.57-2.27-.844-14.369-15.291-35.79-29.911-64.8-29.044a137.761,137.761,0,0,0-74.322,24.316q-.313-.444-.592-.921a138.953,138.953,0,0,1,74.88-24.493C228.693,159.332,250.86,175.181,265.381,191.206Z" transform="translate(-123.397 -14.616)" fill="#fff"/>
        <path id="Path_1995" data-name="Path 1995" d="M217.949,113.606c-1.042,11.407-6.537,18.866-15.893,21.564a39.746,39.746,0,0,1-11.023,1.4c-12.3,0-26.851-4.267-40.561-9.784.33-.286.659-.6.977-.932,17.823,7.151,36.931,12.109,50.3,8.26,11.231-3.247,14.412-13,15.115-20.61,1.59-17.549-8.337-42.228-21.18-56.838.3-.253.6-.494.91-.724C209.724,70.732,219.607,95.465,217.949,113.606Z" transform="translate(-115.166 -46.305)" fill="#fff"/>
        <path id="Path_1996" data-name="Path 1996" d="M192.3,113.545a9.876,9.876,0,0,1-4.474.943c-6.79,0-16.4-4.814-25.282-10.409.185-.33.373-.659.558-.987,10.838,6.866,22.673,12.537,28.705,9.476,9.63-4.891-1.678-35.307-7.656-49.6.252-.339.515-.679.789-1.008C190.973,76.253,202.971,108.127,192.3,113.545Z" transform="translate(-111.496 -44.477)" fill="#fff"/>
      </g>
    </g>
    <g id="Group_5455" data-name="Group 5455" transform="translate(153.264 307.534)">
      <g id="Group_5454" data-name="Group 5454">
        <path id="Path_1997" data-name="Path 1997" d="M236.2,247.123c-50.38,0-91.221,5.074-91.221,11.334,0,2.341,5.714,4.514,15.5,6.32-1.981,1.05-3.067,2.183-3.067,3.368,0,5.35,22.1,9.689,49.357,9.689,24.862,0,45.423-3.609,48.848-8.3,41.048-1.106,71.8-5.642,71.8-11.074C327.417,252.2,286.577,247.123,236.2,247.123Z" transform="translate(-144.977 -247.123)" fill="#e4ebf7"/>
        <ellipse id="Ellipse_579" data-name="Ellipse 579" cx="11.401" cy="2.925" rx="11.401" ry="2.925" transform="translate(117.227 27.421)" fill="#e4ebf7"/>
      </g>
      <path id="Path_1998" data-name="Path 1998" d="M279.931,257.6c0,3.955-25.127,7.16-56.122,7.16s-56.121-3.205-56.121-7.16,25.126-7.16,56.121-7.16S279.931,253.645,279.931,257.6Z" transform="translate(-138.073 -246.115)" fill="#c3cddd"/>
    </g>
    <g id="Group_5462" data-name="Group 5462" transform="translate(190.915 67.1)">
      <g id="Group_5458" data-name="Group 5458" transform="translate(22.216 233.496)">
        <g id="Group_5456" data-name="Group 5456">
          <path id="Path_1999" data-name="Path 1999" d="M217.258,251.092s-3.758,5.674-6.094,10.028a6.1,6.1,0,0,1-5.383,3.21l-14.533-.005s-.732-5.654,3.93-7.88a1.989,1.989,0,0,1,.3-.121,9.132,9.132,0,0,1,3.576-.768s5.3-7,2.118-11.319l12.306-2.435A13.111,13.111,0,0,1,217.258,251.092Z" transform="translate(-190.789 -241.802)" fill="url(#linear-gradient)"/>
          <path id="Path_2000" data-name="Path 2000" d="M207,261.094l-16.112-.005s-.275-5.654,4.387-7.88a1.989,1.989,0,0,1,.3-.121C197.163,252.463,204.8,250.126,207,261.094Z" transform="translate(-190.887 -238.566)" fill="#e4ebf7"/>
        </g>
        <g id="Group_5457" data-name="Group 5457" transform="translate(24.338 5.316)">
          <path id="Path_2001" data-name="Path 2001" d="M213.7,256.6s4.262-4.9,4.331-10.722h11.38s3.839,11.38,1.987,17.206H217.752Z" transform="translate(-208.291 -245.879)" fill="url(#linear-gradient)"/>
          <path id="Path_2002" data-name="Path 2002" d="M227.511,260.673s-2.423-7.061-9.986-6.855-7.974,6.855-7.974,6.855Z" transform="translate(-209.551 -243.467)" fill="#e4ebf7"/>
        </g>
      </g>
      <path id="Path_2003" data-name="Path 2003" d="M195.632,153.408s-15.121,48.9-13.476,61.879,19.479,57.951,19.479,57.951l17.457-5.455s-5.859-33.119-10.612-50.486c0,0,14.076-21.571,16.635-31.807s-2.032-27.97-2.032-27.97Z" transform="translate(-171.363 -35.179)" fill="#1b3151"/>
      <path id="Path_2004" data-name="Path 2004" d="M206.94,158.407l10.238,117.91h16.269s7.313-50.82,3.474-72.208c0,0,8.775-26.507,5.85-53.013Z" transform="translate(-163.791 -35.882)" fill="#23406d"/>
      <g id="Group_5459" data-name="Group 5459" transform="translate(12.621 41.594)">
        <path id="Path_2005" data-name="Path 2005" d="M248.033,150.149l1.854,18.109a22.617,22.617,0,0,1-4.453,4.19c-4.4,3.268-12.219,7.305-24.2,7.458-20.292.286-26.062-8.631-26.062-8.631l1.064-10.443.724-7.107-1.47-2.665-11.966-21.729a68.083,68.083,0,0,1,6.91-23.044c4.178-7.788,13.283-10.234,18.087-10.99a25.966,25.966,0,0,1,3.1-.34,32.643,32.643,0,0,0,13.031,0,24.255,24.255,0,0,1,10.475.647c5.933,1.536,12.152,4.915,15.717,10.135,5.89,8.644,6.251,38.116,6.251,38.116l-9.543,1.644Z" transform="translate(-183.529 -94.639)" fill="url(#linear-gradient-3)"/>
        <path id="Path_2006" data-name="Path 2006" d="M247.1,163.178a22.616,22.616,0,0,1-4.453,4.19c-24.208,3.553-42.547-7.019-49.194-11.616l.724-7.107-1.47-2.665,3.257-12.833,1.361-21.8L203.75,136.3s18.68-2.238,22.047-5.9,5.528-19.053,5.528-19.053l2.611,22.628,11.1,10.682.209.407Z" transform="translate(-180.739 -89.558)" fill="#3150bc" opacity="0.3" style="mix-blend-mode: multiply;isolation: isolate"/>
      </g>
      <path id="Path_2007" data-name="Path 2007" d="M188.207,121.224s.914-1.965,0-3.244a1.863,1.863,0,0,0-2.376-.5s-1.783-3.52-6.718-1.691-9.277,6.855,1.051,13.391S188.207,121.224,188.207,121.224Z" transform="translate(-173.85 -46.776)" fill="#f49187"/>
      <path id="Path_2008" data-name="Path 2008" d="M182.256,121.036l-4.136-12.877a1.014,1.014,0,0,0-1.234-.669h0a1.014,1.014,0,0,0-.683,1.335l4.683,12.486A.931.931,0,0,0,182.256,121.036Z" transform="translate(-173.155 -49.149)" fill="#525559"/>
      <g id="Group_5460" data-name="Group 5460" transform="translate(3.424 73.994)">
        <path id="Path_2009" data-name="Path 2009" d="M209.869,152.39H187.252a1.633,1.633,0,0,1-1.569-1.174l-9.137-29.593a1.659,1.659,0,0,1,1.58-2.139h21.63a1.64,1.64,0,0,1,1.557,1.119L211.438,150.2A1.664,1.664,0,0,1,209.869,152.39Z" transform="translate(-176.476 -119.485)" fill="#959aa0"/>
        <path id="Path_2010" data-name="Path 2010" d="M207.039,152.39H187.252a1.633,1.633,0,0,1-1.569-1.174l-9.137-29.593a1.659,1.659,0,0,1,1.58-2.139h16.682a4.592,4.592,0,0,1,4.354,3.115l9.433,27.6A1.652,1.652,0,0,1,207.039,152.39Z" transform="translate(-176.476 -119.485)" fill="#c2cad3"/>
        <path id="Path_2011" data-name="Path 2011" d="M191.583,133.39c.336,1.862-.385,3.552-1.61,3.774s-2.491-1.11-2.827-2.973.385-3.552,1.61-3.774S191.246,131.526,191.583,133.39Z" transform="translate(-173.257 -116.169)" fill="#dfe6ed"/>
      </g>
      <path id="Path_2012" data-name="Path 2012" d="M209.476,131.2s-5.027-5.667-8.957-5.758l1.737,4.844a22.583,22.583,0,0,1-9.6,3.016c-5.21.275-7.861,1.554-3.839,3.109s5.027,5.392,8.866,7.22,12.7-2.925,12.7-2.925,14.168,4.3,26.507,4.662,21.115-3.474,19.2-10.877-14.716-8.683-23.673-6.307S209.476,131.2,209.476,131.2Z" transform="translate(-169.892 -43.681)" fill="#feb19e"/>
      <path id="Path_2013" data-name="Path 2013" d="M229.687,95.6c-1.909,5.156-9.18,17.939-21.465,15.751C199.4,109.782,201,99.223,203.077,95.3a25.966,25.966,0,0,1,3.1-.34,32.643,32.643,0,0,0,13.031,0A24.255,24.255,0,0,1,229.687,95.6Z" transform="translate(-165.46 -53.045)" fill="#f2d972"/>
      <g id="Group_5461" data-name="Group 5461" transform="translate(16.991)">
        <path id="Path_2014" data-name="Path 2014" d="M222.734,97.375s-1.777,12.953-11.683,13.369c-5.363.233-6.684-2.672-6.755-5.374a13.1,13.1,0,0,1,.741-4.439,3.943,3.943,0,0,0,1.789-1.4,4.893,4.893,0,0,0,.923-2.265,7.316,7.316,0,0,0,.061-1.919c-.142-1.586,1.067-3.323,2.7-4.9a39.61,39.61,0,0,1,7.649-5.435h.355a65.078,65.078,0,0,0,2.275,10.27c.265.752.539,1.463.833,2.093Z" transform="translate(-181.587 -55.972)" fill="#feb19e"/>
        <path id="Path_2015" data-name="Path 2015" d="M204.3,105.37a13.1,13.1,0,0,1,.741-4.439,3.943,3.943,0,0,0,1.789-1.4,4.893,4.893,0,0,0,.923-2.265,7.316,7.316,0,0,0,.061-1.919c-.142-1.586,1.067-3.323,2.7-4.9a39.61,39.61,0,0,1,7.649-5.435h.355C219.484,102.13,208.38,104.923,204.3,105.37Z" transform="translate(-181.587 -55.972)" fill="#ff856a"/>
        <path id="Path_2016" data-name="Path 2016" d="M225.9,84.381s2.81-3.222,1.3-10.488-7.13-5.965-7.13-5.965,1.029-4.593-6.169-5.142-13.643,4.182-17.755,1.92-6.581-1.028-5.279,5c0,0-3.633-3.565-3.976,2.056s4.8,8.569,4.8,8.569-.206,8.021,9.118,10.077l22.211-1.781Z" transform="translate(-186.88 -62.742)" fill="url(#linear-gradient-4)"/>
        <path id="Path_2017" data-name="Path 2017" d="M195.2,79.086s5.12,22.583,12.751,23.582c6.678.875,11.975-8.18,12.889-11.333a34.457,34.457,0,0,0,.849-4.3s3.607.069,3.332-4.456-3.976-6.649-4.8-.137c0,0-3.564-.548-3.77-7.472,0,0-4.8,3.633-9.461,3.29s-3.084-3.29-3.084-3.29S201.78,78.263,195.2,79.086Z" transform="translate(-184.351 -59.023)" fill="#feb19e"/>
      </g>
    </g>
    <g id="Group_5475" data-name="Group 5475" transform="translate(121.501 66.715)">
      <g id="Group_5465" data-name="Group 5465" transform="translate(146.586 4.19)">
        <g id="Group_5464" data-name="Group 5464" transform="translate(4.314 4.704)">
          <path id="Path_2018" data-name="Path 2018" d="M252.716,77.456a8.189,8.189,0,1,0-13.987,5.782c1.145,1.148,1.982.725,2.406,2.29l.66,2.442h5.369l.626-2.312c.432-1.6,1.3-1.2,2.479-2.363A8.164,8.164,0,0,0,252.716,77.456Z" transform="translate(-236.339 -69.267)" fill="#abdaf7"/>
          <g id="Group_5463" data-name="Group 5463" transform="translate(4.605 8.404)">
            <path id="Path_2019" data-name="Path 2019" d="M241.311,75.712a1.441,1.441,0,1,0,.825,2.62v9.084h.616V77.153A1.442,1.442,0,0,0,241.311,75.712Zm0,2.266a.825.825,0,1,1,.825-.825A.826.826,0,0,1,241.311,77.978Z" transform="translate(-239.87 -75.712)" fill="#fff"/>
            <path id="Path_2020" data-name="Path 2020" d="M244.613,76.674a1.442,1.442,0,0,0-1.44,1.441l-.07,9.008h.615l.069-7.828a1.441,1.441,0,1,0,.825-2.621Zm0,2.266a.825.825,0,1,1,.827-.825A.826.826,0,0,1,244.613,78.94Z" transform="translate(-238.887 -75.42)" fill="#fff"/>
          </g>
          <path id="Path_2021" data-name="Path 2021" d="M243.244,86.772h0a2.8,2.8,0,0,1-2.8-2.8v-.653h5.592v.653A2.8,2.8,0,0,1,243.244,86.772Z" transform="translate(-235.09 -64.994)" fill="#4e8fb7"/>
          <path id="Path_2022" data-name="Path 2022" d="M246.112,84.418h-5.637a.216.216,0,0,1-.216-.215h0a.215.215,0,0,1,.216-.215h5.637a.215.215,0,0,1,.216.215h0A.216.216,0,0,1,246.112,84.418Z" transform="translate(-235.148 -64.792)" fill="#70b2dd"/>
          <path id="Path_2023" data-name="Path 2023" d="M246.146,85.116h-5.64a.215.215,0,0,1-.215-.215h0a.215.215,0,0,1,.215-.214h5.64a.214.214,0,0,1,.214.214h0A.214.214,0,0,1,246.146,85.116Z" transform="translate(-235.137 -64.579)" fill="#70b2dd"/>
        </g>
        <path id="Path_2024" data-name="Path 2024" d="M235.593,75.462h-2.149a.413.413,0,0,1-.413-.413h0a.413.413,0,0,1,.413-.413h2.149a.413.413,0,0,1,.413.413h0A.413.413,0,0,1,235.593,75.462Z" transform="translate(-233.031 -62.932)" fill="#abdaf7"/>
        <path id="Path_2025" data-name="Path 2025" d="M236,72.734l-1.905-.995a.414.414,0,0,1-.175-.558h0a.412.412,0,0,1,.557-.175l1.905.995a.412.412,0,0,1,.176.557h0A.413.413,0,0,1,236,72.734Z" transform="translate(-232.776 -64.049)" fill="#abdaf7"/>
        <path id="Path_2026" data-name="Path 2026" d="M236.1,77.556l-1.905.995a.413.413,0,0,0-.176.558h0a.414.414,0,0,0,.558.175l1.905-.995a.412.412,0,0,0,.175-.557h0A.413.413,0,0,0,236.1,77.556Z" transform="translate(-232.744 -62.058)" fill="#abdaf7"/>
        <path id="Path_2027" data-name="Path 2027" d="M237.661,70.395l-1.519-1.52a.412.412,0,0,1,0-.584h0a.412.412,0,0,1,.584,0l1.52,1.52a.415.415,0,0,1,0,.584h0A.414.414,0,0,1,237.661,70.395Z" transform="translate(-232.122 -64.897)" fill="#abdaf7"/>
        <path id="Path_2028" data-name="Path 2028" d="M239.474,68.925l-.741-2.017a.413.413,0,0,1,.245-.531h0a.414.414,0,0,1,.531.245l.741,2.017a.412.412,0,0,1-.245.531h0A.415.415,0,0,1,239.474,68.925Z" transform="translate(-231.305 -65.45)" fill="#abdaf7"/>
        <path id="Path_2029" data-name="Path 2029" d="M250.4,75.251h2.15a.414.414,0,0,0,.413-.413h0a.414.414,0,0,0-.413-.413H250.4a.412.412,0,0,0-.412.413h0A.412.412,0,0,0,250.4,75.251Z" transform="translate(-227.876 -62.996)" fill="#abdaf7"/>
        <path id="Path_2030" data-name="Path 2030" d="M249.941,72.521l1.905-.994a.413.413,0,0,0,.176-.558h0a.414.414,0,0,0-.558-.175l-1.905.994a.414.414,0,0,0-.175.558h0A.412.412,0,0,0,249.941,72.521Z" transform="translate(-228.074 -64.113)" fill="#abdaf7"/>
        <path id="Path_2031" data-name="Path 2031" d="M249.836,77.345l1.905.995a.414.414,0,0,1,.175.558h0a.414.414,0,0,1-.558.175l-1.905-.995a.414.414,0,0,1-.175-.558h0A.414.414,0,0,1,249.836,77.345Z" transform="translate(-228.106 -62.122)" fill="#abdaf7"/>
        <path id="Path_2032" data-name="Path 2032" d="M248.186,70.183l1.519-1.519a.412.412,0,0,0,0-.584h0a.412.412,0,0,0-.584,0L247.6,69.6a.412.412,0,0,0,0,.584h0A.412.412,0,0,0,248.186,70.183Z" transform="translate(-228.638 -64.961)" fill="#abdaf7"/>
        <path id="Path_2033" data-name="Path 2033" d="M246.193,68.714l.742-2.019a.412.412,0,0,0-.246-.529h0a.411.411,0,0,0-.529.245l-.742,2.017a.415.415,0,0,0,.245.531h0A.414.414,0,0,0,246.193,68.714Z" transform="translate(-229.273 -65.514)" fill="#abdaf7"/>
        <path id="Path_2034" data-name="Path 2034" d="M242.3,68.222V66.073a.413.413,0,0,1,.413-.413h0a.413.413,0,0,1,.413.413v2.149a.413.413,0,0,1-.413.413h0A.413.413,0,0,1,242.3,68.222Z" transform="translate(-230.213 -65.66)" fill="#abdaf7"/>
      </g>
      <g id="Group_5467" data-name="Group 5467" transform="translate(196.14 57.726)">
        <rect id="Rectangle_2677" data-name="Rectangle 2677" width="21.434" height="21.434" rx="2.604" fill="#abdaf7"/>
        <g id="Group_5466" data-name="Group 5466" transform="translate(4.669 3.415)">
          <path id="Path_2035" data-name="Path 2035" d="M286.617,109.334l.093.091q-.094.925-.093,3.227l-.082.083h-.484l-.082-.093-.113-.947a8.783,8.783,0,0,0-.128-.93.443.443,0,0,0-.149-.246,1.857,1.857,0,0,0-.669-.129q-.565-.051-1.264-.051H281.7q-.082,2.322-.082,2.682v5.992l.021,2c.007.775.026,1.277.056,1.506a.907.907,0,0,0,.145.452.8.8,0,0,0,.374.185,8.331,8.331,0,0,0,1.377.117l.073.063v.514l-.073.082q-2.631-.082-2.939-.082-.329,0-2.929.082l-.082-.082v-.514l.082-.063a10.435,10.435,0,0,0,1.279-.1.921.921,0,0,0,.421-.159.834.834,0,0,0,.18-.416,8.362,8.362,0,0,0,.072-1.419l.021-2.169v-5.992q0-.164-.082-2.682h-1.531c-.631,0-1.175.014-1.635.04s-.724.1-.8.211a3.657,3.657,0,0,0-.2,1.1l-.1.947-.093.093h-.472l-.082-.083q-.022-2.476-.093-3.227l.093-.091q1.788.082,5.95.082Q284.9,109.416,286.617,109.334Z" transform="translate(-274.612 -109.334)" fill="#4e8fb7"/>
        </g>
      </g>
      <g id="Group_5470" data-name="Group 5470" transform="translate(0 41.541)">
        <g id="Group_5468" data-name="Group 5468" transform="translate(0 10.067)">
          <path id="Path_2036" data-name="Path 2036" d="M138.533,105a.713.713,0,0,1-.429-1.283,25.027,25.027,0,0,1,2.334-1.595.713.713,0,0,1,.711,1.236,24.761,24.761,0,0,0-2.189,1.5A.706.706,0,0,1,138.533,105Z" transform="translate(-115.39 -102.023)" fill="#70b2dd"/>
          <path id="Path_2037" data-name="Path 2037" d="M146.815,177.251q-.951,0-1.955-.06a.713.713,0,0,1,.085-1.423c.657.039,1.286.064,1.921.056a27.275,27.275,0,0,0,3.443-.21.712.712,0,1,1,.18,1.414A25.266,25.266,0,0,1,146.815,177.251Zm-7.365-.8a.706.706,0,0,1-.155-.017,27.039,27.039,0,0,1-5.361-1.768.713.713,0,0,1,.592-1.3,25.541,25.541,0,0,0,5.078,1.673.713.713,0,0,1-.154,1.41Zm16.262-.786a.713.713,0,0,1-.271-1.373,16.616,16.616,0,0,0,4.494-2.727.713.713,0,0,1,.925,1.086,18.093,18.093,0,0,1-4.877,2.96A.706.706,0,0,1,155.712,175.669Zm-26.148-3.829a.71.71,0,0,1-.452-.163,20.687,20.687,0,0,1-3.849-4.183.713.713,0,1,1,1.171-.814,19.268,19.268,0,0,0,3.585,3.9.714.714,0,0,1-.454,1.264Zm34.415-3.166a.714.714,0,0,1-.6-1.1,24.419,24.419,0,0,0,2.341-4.8.713.713,0,1,1,1.339.488,25.866,25.866,0,0,1-2.479,5.083A.714.714,0,0,1,163.98,168.674ZM123.3,162.93a.711.711,0,0,1-.666-.459,29.511,29.511,0,0,1-1.471-5.442.713.713,0,0,1,1.406-.245,28.02,28.02,0,0,0,1.4,5.18.712.712,0,0,1-.412.919A.7.7,0,0,1,123.3,162.93Zm44.554-4.505a.759.759,0,0,1-.141-.014.713.713,0,0,1-.558-.84,51.113,51.113,0,0,0,.767-5.38.713.713,0,0,1,1.42.13,52.63,52.63,0,0,1-.789,5.53A.713.713,0,0,1,167.855,158.425Zm-46.511-6.284a.714.714,0,0,1-.712-.7c-.008-.359-.013-.72-.013-1.084,0-1.454.072-2.969.211-4.5a.713.713,0,0,1,1.42.129c-.136,1.49-.2,2.963-.2,4.374,0,.353,0,.7.012,1.048a.713.713,0,0,1-.7.73Zm47.57-4.676h-.01a.714.714,0,0,1-.7-.722c.007-.417.009-.833.009-1.252,0-1.35-.031-2.77-.093-4.22a.713.713,0,1,1,1.424-.06c.063,1.47.1,2.911.1,4.28,0,.425,0,.848-.009,1.271A.713.713,0,0,1,168.914,147.464Zm-46.61-6.285a.653.653,0,0,1-.132-.013.713.713,0,0,1-.571-.831c.33-1.768.745-3.594,1.236-5.426a.713.713,0,0,1,1.378.368c-.482,1.8-.889,3.587-1.211,5.319A.714.714,0,0,1,122.3,141.179Zm46.168-4.726a.713.713,0,0,1-.709-.653q-.088-1.029-.186-2.032c-.089-.909-.134-1.84-.134-2.77,0-.259,0-.518.01-.776a.685.685,0,0,1,.733-.694.712.712,0,0,1,.692.732c-.007.246-.009.492-.009.738,0,.883.043,1.768.126,2.63q.1,1.013.188,2.051a.712.712,0,0,1-.649.771Zm-43.334-5.916a.715.715,0,0,1-.674-.945q.272-.788.558-1.578c.443-1.218.931-2.435,1.449-3.617a.713.713,0,0,1,1.307.572c-.506,1.154-.982,2.343-1.415,3.534q-.284.775-.55,1.552A.713.713,0,0,1,125.139,130.537Zm43.708-5.043a.734.734,0,0,1-.158-.018.713.713,0,0,1-.539-.852,26.362,26.362,0,0,1,1.814-5.357.713.713,0,0,1,1.291.605,24.907,24.907,0,0,0-1.713,5.065A.713.713,0,0,1,168.846,125.494Zm-39.279-5.035a.7.7,0,0,1-.346-.09.715.715,0,0,1-.278-.97c.9-1.627,1.891-3.222,2.937-4.741a.713.713,0,0,1,1.175.807c-1.02,1.481-1.983,3.038-2.865,4.627A.711.711,0,0,1,129.567,120.46Zm44.016-4.8a.713.713,0,0,1-.533-1.187,12.348,12.348,0,0,1,4.684-3.4.713.713,0,1,1,.52,1.327,10.955,10.955,0,0,0-4.139,3.023A.707.707,0,0,1,173.583,115.663Zm14.583-.823a.712.712,0,0,1-.463-.171,11.828,11.828,0,0,0-4.494-2.523.713.713,0,0,1,.376-1.376,13.233,13.233,0,0,1,5.045,2.815.713.713,0,0,1-.464,1.254ZM135.809,111.4a.714.714,0,0,1-.544-1.174,53.54,53.54,0,0,1,3.819-4.072.712.712,0,0,1,.987,1.028,52.225,52.225,0,0,0-3.716,3.965A.717.717,0,0,1,135.809,111.4Z" transform="translate(-120.619 -100.829)" fill="#70b2dd"/>
          <path id="Path_2038" data-name="Path 2038" d="M177,118.582a.711.711,0,0,1-.606-.339c-.493-.8-1-1.549-1.5-2.239a.713.713,0,0,1,1.154-.837c.522.717,1.046,1.5,1.557,2.326a.713.713,0,0,1-.606,1.089Z" transform="translate(-104.16 -98.117)" fill="#70b2dd"/>
        </g>
        <g id="Group_5469" data-name="Group 5469" transform="translate(19.732)">
          <path id="Path_2039" data-name="Path 2039" d="M157.688,95.233l-7.082,4.74a1.742,1.742,0,1,1-.629-.819l7.246-4.851-17.647,1.755,2.569,3.838-4.94,3.307,4.679,6.991,4.941-3.307,2.746,4.1Z" transform="translate(-135.309 -94.303)" fill="#70b2dd"/>
          <rect id="Rectangle_2678" data-name="Rectangle 2678" width="10.877" height="3.016" transform="translate(2.507 6.846) rotate(56.2)" fill="#4e8fb7"/>
        </g>
      </g>
      <g id="Group_5472" data-name="Group 5472" transform="translate(111.851 6.096)">
        <g id="Group_5471" data-name="Group 5471" transform="translate(0 18.026)">
          <path id="Path_2040" data-name="Path 2040" d="M207.106,144.934a.713.713,0,0,1-.181-1.4,23.443,23.443,0,0,1,2.792-.488.713.713,0,0,1,.173,1.416,22.09,22.09,0,0,0-2.6.451A.721.721,0,0,1,207.106,144.934Z" transform="translate(-206.394 -62.068)" fill="#70b2dd"/>
          <path id="Path_2041" data-name="Path 2041" d="M265.459,185.033c-1.118,0-2.243-.051-3.347-.15a.713.713,0,0,1,.126-1.42,36.1,36.1,0,0,0,5.455.074.713.713,0,1,1,.091,1.423C267.023,185.008,266.24,185.033,265.459,185.033Zm7.788-.852a.714.714,0,0,1-.155-1.41,30.653,30.653,0,0,0,5.178-1.65.713.713,0,1,1,.554,1.313,32.062,32.062,0,0,1-5.419,1.728A.722.722,0,0,1,273.247,184.181Zm-16.56-.209a.774.774,0,0,1-.171-.021,35.447,35.447,0,0,1-5.387-1.789.713.713,0,0,1,.558-1.313,33.95,33.95,0,0,0,5.17,1.719.713.713,0,0,1-.171,1.4Zm26.735-4.152a.713.713,0,0,1-.409-1.3,21.453,21.453,0,0,0,4-3.591.713.713,0,1,1,1.081.928,22.777,22.777,0,0,1-4.263,3.832A.711.711,0,0,1,283.422,179.821Zm-36.928-.2a.715.715,0,0,1-.386-.115,30.725,30.725,0,0,1-4.473-3.523.713.713,0,0,1,.983-1.033,29.129,29.129,0,0,0,4.264,3.358.714.714,0,0,1-.389,1.313Zm-8.188-7.49a.718.718,0,0,1-.5-.21,38.717,38.717,0,0,0-4.114-3.593.713.713,0,1,1,.858-1.14,40.19,40.19,0,0,1,4.265,3.724.714.714,0,0,1-.5,1.218Zm52.222-.7a.7.7,0,0,1-.291-.063.712.712,0,0,1-.359-.941,18.7,18.7,0,0,0,1.431-4.964l.025-.18a.713.713,0,0,1,1.412.2l-.026.183a20.12,20.12,0,0,1-1.54,5.345A.714.714,0,0,1,290.528,171.431Zm-61.094-5.967a.7.7,0,0,1-.336-.086,35.092,35.092,0,0,0-4.988-2.2.712.712,0,1,1,.472-1.344,36.222,36.222,0,0,1,5.191,2.29.713.713,0,0,1-.339,1.341Zm-10.463-3.675a.641.641,0,0,1-.13-.013,36.987,36.987,0,0,0-5.427-.589.711.711,0,0,1-.687-.737.726.726,0,0,1,.735-.687,38.067,38.067,0,0,1,5.639.613.713.713,0,0,1-.129,1.414Zm73.347-1.251a.712.712,0,0,1-.712-.689,38.378,38.378,0,0,0-.6-5.426.713.713,0,0,1,1.4-.253,39.55,39.55,0,0,1,.617,5.629.712.712,0,0,1-.687.738Zm-1.9-10.939a.713.713,0,0,1-.683-.512c-.48-1.639-1.055-3.351-1.755-5.232a.712.712,0,1,1,1.335-.5c.713,1.913,1.3,3.655,1.788,5.328a.713.713,0,0,1-.685.913Zm-3.827-10.459a.71.71,0,0,1-.659-.439q-.7-1.686-1.412-3.345l-.755-1.783a.713.713,0,0,1,1.313-.554l.755,1.779c.471,1.11.945,2.229,1.415,3.355a.714.714,0,0,1-.383.932A.728.728,0,0,1,286.588,139.14Zm-4.268-10.291a.715.715,0,0,1-.666-.459c-.758-1.977-1.354-3.718-1.82-5.323a.713.713,0,0,1,1.369-.4c.456,1.567,1.038,3.272,1.783,5.213a.712.712,0,0,1-.41.919A.683.683,0,0,1,282.32,128.848Zm-2.967-10.707a.712.712,0,0,1-.705-.626,24.631,24.631,0,0,1-.2-3.027,20.161,20.161,0,0,1,.177-2.707.713.713,0,1,1,1.412.192,18.813,18.813,0,0,0-.164,2.515,23.13,23.13,0,0,0,.185,2.852.714.714,0,0,1-.621.8A.662.662,0,0,1,279.353,118.141Zm1.595-10.843a.713.713,0,0,1-.636-1.034,17.861,17.861,0,0,1,3.409-4.649.713.713,0,1,1,1.008,1.009,16.447,16.447,0,0,0-3.143,4.281A.715.715,0,0,1,280.948,107.3Zm7.608-7.954a.713.713,0,0,1-.4-1.3c1.14-.772,2.307-1.5,3.436-2.193l1.292-.8a.713.713,0,0,1,.758,1.208l-1.3.807c-1.116.691-2.27,1.406-3.385,2.162A.72.72,0,0,1,288.556,99.344Zm9.235-6.216a.714.714,0,0,1-.472-1.248,10.535,10.535,0,0,0,3.053-4.153.714.714,0,0,1,1.335.5,11.946,11.946,0,0,1-3.445,4.719A.708.708,0,0,1,297.791,93.128Z" transform="translate(-204.469 -79.024)" fill="#70b2dd"/>
          <path id="Path_2042" data-name="Path 2042" d="M281.084,85.036a.713.713,0,0,1-.7-.6,18.313,18.313,0,0,0-.636-2.564.712.712,0,0,1,1.356-.437,19.4,19.4,0,0,1,.686,2.767.712.712,0,0,1-.585.82A.738.738,0,0,1,281.084,85.036Z" transform="translate(-184.105 -80.945)" fill="#70b2dd"/>
        </g>
        <path id="Path_2043" data-name="Path 2043" d="M280.7,80.676l.14,3.788a1.516,1.516,0,0,1-1.047,1.5l-5.646,1.828a.6.6,0,0,1-.784-.608l1.209-19.5a.6.6,0,0,1,1.025-.385l14.163,14.3a.6.6,0,0,1-.231.988l-4.19,1.447a1.516,1.516,0,0,1-1.554-.347Z" transform="translate(-186.036 -67.122)" fill="#70b2dd"/>
      </g>
      <g id="Group_5473" data-name="Group 5473" transform="translate(62.056 24.007)">
        <path id="Path_2044" data-name="Path 2044" d="M182.473,100.087h0A1.8,1.8,0,0,1,180,99.482l-4.568-7.52,3.077-1.869,4.567,7.52A1.8,1.8,0,0,1,182.473,100.087Z" transform="translate(-166.011 -78.05)" fill="#4e8fb7"/>
        <path id="Path_2045" data-name="Path 2045" d="M182.737,84.629A7.832,7.832,0,1,0,180.1,95.387,7.829,7.829,0,0,0,182.737,84.629Zm-3.925,8.633a5.345,5.345,0,1,1,1.8-7.355A5.348,5.348,0,0,1,178.812,93.262Z" transform="translate(-168.207 -80.857)" fill="#70b2dd"/>
      </g>
      <g id="Group_5474" data-name="Group 5474" transform="translate(21.478)">
        <path id="Path_2046" data-name="Path 2046" d="M166.967,64.707v19.3a2.268,2.268,0,0,1-2.27,2.27H139.35a2.265,2.265,0,0,1-2.26-2.27v-19.3a2.263,2.263,0,0,1,2.26-2.26H164.7A2.266,2.266,0,0,1,166.967,64.707Z" transform="translate(-137.09 -62.447)" fill="#abdaf7"/>
        <path id="Path_2047" data-name="Path 2047" d="M166.967,76.711V82.33a2.268,2.268,0,0,1-2.27,2.27H139.35a2.265,2.265,0,0,1-2.26-2.27V77.047s6.39-9.079,10.343-9.079c4.6,0,7.674,10.474,10,10.474s2.912-4.306,5.925-4.306C164.94,74.136,166.186,75.522,166.967,76.711Z" transform="translate(-137.09 -60.769)" fill="#70b2dd"/>
        <path id="Path_2048" data-name="Path 2048" d="M158.123,68.949a3.046,3.046,0,1,1-3.046-3.045A3.045,3.045,0,0,1,158.123,68.949Z" transform="translate(-132.547 -61.396)" fill="#4e8fb7"/>
      </g>
    </g>
  </g>
</svg>
